<?xml version="1.0" encoding="UTF-8"?>
<svg id="Layer_1" data-name="Layer 1" xmlns="http://www.w3.org/2000/svg" viewBox="0 0 103.4 134.08">
  <defs>
    <style>
      .cls-1 {
        isolation: isolate;
      }

      .cls-2 {
        fill: #fbcc91;
        stroke-width: 0px;
      }
    </style>
  </defs>
  <g>
    <g>
      <path class="cls-2" d="M40.62,68.88c2.13.26,5.02.99,6.95,2.49-2.56-1.06-5.01-1.34-7.69-.89-6.45,1.09-11.01,5.9-19.31,7.86-4.08.97-12.14.78-16.67-3.91,4.57,2.83,11.84,3.66,17.35,1.44,7.71-3.11,11.99-7.89,19.37-7Z"/>
      <path class="cls-2" d="M34.79,63.7c-.05-.64-.05-2.58-.05-3.71V12.87c0-.13.08-.24.2-.29l.68-.26c.14-.05.23-.19.23-.34v-2.98c0-.13.08-.24.2-.29l.67-.25c.09-.04.17-.11.21-.2L40.21.1c.04-.09.16-.09.2,0l3.58,8.68c.04.09.1.15.19.19l.5.22c.11.05.18.16.18.28v2.99c0,.15.09.28.23.34l.58.22c.12.05.2.16.2.29v52.51c0,.05.02.1.06.13,1.77,1.66,2.97,3.29,3.38,5.03-1.49-1.63-3.02-2.71-4.76-3.39V13.81c0-.15-.09-.28-.23-.33l-.58-.22c-.12-.05-.2-.16-.2-.3v-2.98c0-.15-.09-.28-.23-.33l-.31-.12c-.1-.04-.18-.12-.21-.22l-2.36-6.69c-.02-.07-.12-.05-.12.02v64.07s-.01,0-.01,0h0c-.56-.11-1.74-.23-2.35-.23-7.58,0-8.37,3.62-17.91,7.67-8.06,3.42-21.65,1.02-19.89-11.29.71-4.97,7.08-9.23,11.53-10.26,5.87-1.36,10.96,1.78,10.96,5.88,0,3.86-5.24,3.95-5.24,3.95.87-.81,1.46-1.95,1.32-3.67-.3-3.55-3.79-5.7-8.03-4.16-3.1,1.13-5.78,5.27-5.08,9.68.71,4.48,4.24,9.14,10.09,9.14,6.23,0,10.75-8.31,19.09-9.72Z"/>
    </g>
    <g>
      <path class="cls-2" d="M68.6,63.72c.05-.64.05-2.58.05-3.71V12.89c0-.13-.08-.24-.2-.29l-.68-.26c-.14-.05-.23-.19-.23-.34v-2.98c0-.13-.08-.24-.2-.29l-.67-.25c-.09-.04-.17-.11-.21-.2L63.18.12c-.04-.09-.16-.09-.2,0l-3.58,8.68c-.04.09-.1.15-.19.19l-.5.22c-.11.05-.18.16-.18.28v2.99c0,.15-.09.28-.23.34l-.58.22c-.12.05-.2.16-.2.29v52.51c0,.05-.02.1-.06.13-1.77,1.66-2.97,3.29-3.38,5.03,1.49-1.63,3.02-2.71,4.76-3.39V13.83c0-.15.09-.28.23-.33l.58-.22c.12-.05.2-.16.2-.3v-2.98c0-.15.09-.28.23-.33l.31-.12c.1-.04.18-.12.21-.22l2.36-6.69c.02-.07.12-.05.12.02v64.07h.01c.56-.12,1.74-.24,2.35-.24,7.58,0,8.37,3.62,17.91,7.67,8.06,3.42,21.65,1.02,19.89-11.29-.71-4.97-7.08-9.23-11.53-10.26-5.87-1.36-10.96,1.78-10.96,5.88,0,3.86,5.24,3.95,5.24,3.95-.87-.81-1.46-1.95-1.32-3.67.3-3.55,3.79-5.7,8.03-4.16,3.1,1.13,5.78,5.27,5.08,9.68-.71,4.48-4.24,9.14-10.09,9.14-6.23,0-10.75-8.31-19.09-9.72Z"/>
      <path class="cls-2" d="M62.81,68.88c-2.13.26-5.02.99-6.95,2.49,2.56-1.06,5.01-1.34,7.69-.89,6.45,1.09,11.01,5.9,19.31,7.86,4.08.97,12.14.78,16.67-3.91-4.57,2.83-11.84,3.66-17.35,1.44-7.71-3.11-11.99-7.89-19.37-7Z"/>
    </g>
  </g>
  <g>
    <path class="cls-2" d="M15.06,99.12l-.1.03c-.42.1-1.84.16-3.58.16h-5.09v-20.6s0-.09,0-.13c-1.24-.64-2.36-1.4-3.31-2.29h-.75v.32c.06,0,.1.84.1,2.09v19.18c0,1.26-.03,2.1-.1,2.1v.32h13.05l.06-.52c.03-.19.06-.48.1-.68h-.39Z"/>
    <path class="cls-2" d="M99.99,79h.1c.1.16.19.32.26.48l.13-.06c.06.06.13.16.19.23h.26v-.45h-.01c-.36-.78-.92-1.45-1.6-1.96-.26.19-.53.38-.81.56.47.29,1,.72,1.49,1.21Z"/>
    <path class="cls-2" d="M31.11,76.2c-.65.34-1.32.69-2.02,1.04.25-.05.5-.07.77-.07,3.84,0,5.83,5.12,5.83,11.15s-2,11.15-5.83,11.15-5.83-5.12-5.83-11.15c0-4.5,1.11-8.49,3.27-10.23-1.6.72-3.34,1.39-5.28,1.91-1.6,2.2-2.41,5.14-2.41,8.31,0,6.54,3.48,12.15,10.25,12.15s10.25-5.61,10.25-12.15c0-6.16-3.05-11.47-9-12.12Z"/>
    <path class="cls-2" d="M97.28,86.84c-3-1.35-5-3.35-5-5.03,0-.56.06-1.09.18-1.57-.82.18-1.66.31-2.53.41-.27.84-.42,1.77-.42,2.78,0,2.58,1.9,5.16,4.77,6.45,3.13,1.42,5.22,3.58,5.22,5.45,0,2.51-1.58,4.19-3.96,4.19-.45,0-.87-.03-1.29-.06v-.03c-1.13-.1-2.48-.48-3.61-1.03-.1-.1-.19-.19-.26-.29l-.19.1-.19-.1c-.1-.06-.23-.13-.29-.16h-.26v.58c.55,1.19,3,2,6.06,2,4.09,0,6.8-2.74,6.8-6.83,0-2.74-2-5.48-5.03-6.83Z"/>
    <path class="cls-2" d="M76.05,78.05c2.84,1.5,4.59,5.24,4.59,10.26,0,6.57-2.64,10.96-6.61,10.96h-3.87v-21.95h2.9c.83,0,1.62.15,2.34.43-1.02-.48-1.99-.98-2.92-1.46h-6.42v.32c.06,0,.1.84.1,2.09v19.18c0,1.26-.03,2.1-.1,2.1v.32h7.96c6.35,0,10.6-4.8,10.6-11.99,0-3.31-.97-6.11-2.69-8.17-2.19-.55-4.13-1.29-5.9-2.09Z"/>
    <path class="cls-2" d="M60.26,97.7l-7.35-9.67c4.06-.81,6.57-2.93,6.57-5.8,0-3.55-3.09-5.9-7.74-5.9h-7.16v.32c.06,0,.1.84.1,2.09v19.18c0,1.26-.03,2.09-.1,2.09v.32h4.22v-.32h-.03s-.06-.84-.1-2.09v-8.96l5.96,7.96c2.48,3.29,2.77,3.42,7.22,3.42l1.35-.03v-.81h-.16c-1.35,0-1.48-.06-2.8-1.81ZM48.69,87.38v-10.02h3.06c2.09,0,3.51,1.93,3.51,4.87,0,3.09-2.48,5.16-6.22,5.16h-.35Z"/>
  </g>
  <g id="THE_LORDS_WILL_BE_ARRIVING_SOON" data-name="THE LORDS WILL BE ARRIVING SOON">
    <g class="cls-1">
      <path class="cls-2" d="M12.75,133.56H2.23v-.26c.05,0,.08-.68.08-1.69v-15.46c0-1.01-.03-1.69-.08-1.69v-.26h3.38v.26h-.03s-.05.68-.08,1.69v16.6h4.11c1.4,0,2.55-.05,2.88-.13l.08-.03h.31c-.03.16-.05.39-.08.55l-.05.42Z"/>
      <path class="cls-2" d="M26.71,133.56h-10.52v-.26c.05,0,.08-.68.08-1.69v-15.46c0-1.01-.03-1.69-.08-1.69v-.26h10.55v.96h-.18l-.13-.03c-.36-.05-1.66-.1-3.22-.1h-3.72v7.09h2.62c1.33,0,2.34-.03,2.52-.08h.26v.99h-.21l-.05-.03c-.18-.05-1.2-.08-2.52-.08h-2.62v9.82h3.85c1.56,0,2.86-.05,3.25-.13l.1-.03s.08.03.18,0c-.03.18-.05.39-.08.55l-.08.42Z"/>
      <path class="cls-2" d="M41.33,114.2h1.04v.26c-.05,0-.08.68-.08,1.69v17.93h-1.35l-1.09-1.9-8.68-14.84v14.27c0,1.01.03,1.69.08,1.69v.26h-1.12v-.26c.05,0,.08-.68.08-1.69v-15.46c0-1.01-.03-1.69-.08-1.69v-.26h2.94l8.26,14.34v-12.39c0-1.01-.03-1.69-.08-1.69h-.03v-.26h.1Z"/>
      <path class="cls-2" d="M45.49,133.56h-.08v-.26c.05,0,.08-.68.08-1.69v-15.46c0-1.01-.03-1.69-.08-1.69v-.26h5.64c5.61,0,9.33,3.87,9.33,9.69s-3.43,9.67-8.55,9.67h-6.34ZM51.83,132.73c3.2,0,5.33-3.53,5.33-8.83s-2.44-8.86-6.11-8.86h-2.34v17.7h3.12Z"/>
      <path class="cls-2" d="M64.26,133.56h-.08v-.26c.05,0,.08-.68.08-1.69v-15.46c0-1.01-.03-1.69-.08-1.69v-.26h3.38v.26c-.05,0-.08.68-.08,1.69v15.46c0,1.01.03,1.69.08,1.69v.26h-3.3Z"/>
      <path class="cls-2" d="M82.22,114.2h1.04v.26c-.05,0-.08.68-.08,1.69v17.93h-1.35l-1.09-1.9-8.68-14.84v14.27c0,1.01.03,1.69.08,1.69v.26h-1.12v-.26c.05,0,.08-.68.08-1.69v-15.46c0-1.01-.03-1.69-.08-1.69v-.26h2.94l8.26,14.34v-12.39c0-1.01-.03-1.69-.08-1.69h-.03v-.26h.1Z"/>
      <path class="cls-2" d="M98.73,126.39c0-1.01-.03-1.69-.08-1.69v-.26h3.07v.26h-.03s-.05.68-.05,1.69v5.77c-1.59.91-4.05,1.51-6.21,1.51-5.35,0-8.91-3.92-8.91-9.8s3.56-9.82,8.91-9.82c2.94,0,5.38,1.09,6.16,2.7v.49h-.23c-.05-.05-.16-.1-.21-.16-.03-.03-.05-.05-.08-.08l-.23.1c-.08-.18-.18-.34-.31-.49-.91-.62-1.71-1.09-2.18-1.3-.83-.26-1.82-.42-2.88-.42-3.2,0-5.35,3.59-5.35,8.99s2.16,8.99,5.35,8.99c1.07,0,2.23-.16,3.3-.44v-6.03l-.03-.03Z"/>
    </g>
  </g>
  <g>
    <path class="cls-2" d="M47.73,108.38c.06-.26.15-.52.26-.79.12-.27.25-.52.42-.77.16-.25.35-.48.55-.7.21-.22.43-.41.67-.57s.5-.29.77-.39c.27-.09.55-.14.84-.14.33,0,.6.07.82.21.22.14.39.32.51.55.12.23.19.48.21.77.02.29,0,.59-.07.89-.06.26-.15.52-.26.79-.12.27-.26.52-.42.77-.16.25-.35.48-.55.7-.21.22-.43.41-.67.57-.24.16-.5.29-.77.39s-.55.14-.84.14c-.33,0-.6-.07-.82-.21-.22-.14-.39-.32-.51-.55-.12-.23-.19-.48-.21-.77-.02-.29,0-.59.07-.89ZM48.73,108.01c-.04.17-.07.35-.08.53-.01.18-.01.35,0,.52.02.17.05.32.1.47.05.14.12.27.21.38.09.11.2.19.33.25.13.06.28.09.45.09.19,0,.36-.04.52-.12.16-.08.31-.19.44-.32.13-.13.26-.29.36-.46.11-.17.2-.35.29-.53s.15-.36.21-.54c.06-.18.1-.34.14-.5.04-.18.07-.35.08-.53.01-.18.01-.35,0-.51-.02-.17-.05-.32-.1-.47-.05-.14-.12-.27-.21-.38s-.2-.19-.33-.25c-.13-.06-.28-.09-.45-.09-.19,0-.36.04-.52.12-.16.08-.31.19-.44.32-.13.13-.26.29-.36.46-.11.17-.2.35-.29.53-.08.18-.15.36-.21.54-.06.18-.1.35-.14.49Z"/>
    <path class="cls-2" d="M56.53,105.31c.13,0,.25,0,.37.01.12,0,.23,0,.33,0,.1,0,.2,0,.28,0,.08,0,.15,0,.21,0,.12,0,.23,0,.34-.01.11,0,.2-.02.27-.02,0,.1,0,.17-.01.23-.03.11-.09.19-.19.22-.1.04-.24.05-.42.05s-.37,0-.59-.03c-.21-.02-.45-.04-.71-.06-.08.31-.17.64-.27,1-.1.36-.2.73-.32,1.11s-.23.77-.36,1.17c-.13.4-.26.78-.4,1.16-.14.38-.28.74-.44,1.08-.15.34-.31.65-.47.93-.25.44-.51.8-.76,1.1-.26.29-.51.53-.77.71-.26.18-.51.3-.75.38-.25.08-.48.11-.71.11-.2,0-.37-.02-.53-.07-.16-.04-.29-.1-.4-.18-.11-.07-.18-.16-.23-.26-.05-.1-.06-.2-.03-.31.01-.06.04-.12.08-.18.04-.06.09-.11.15-.16.06-.05.13-.08.2-.11.07-.03.15-.04.23-.04.04.13.1.25.17.34.07.09.15.17.24.23.09.06.18.1.29.13s.21.04.32.04c.29,0,.57-.1.82-.29.25-.19.49-.46.71-.81.22-.35.43-.77.62-1.27.19-.49.38-1.04.56-1.65.18-.61.36-1.26.54-1.96.18-.7.36-1.44.54-2.21-.24,0-.47.01-.68.03-.21.02-.39.05-.54.1,0-.02,0-.05,0-.07.01-.06.06-.12.13-.17.07-.05.16-.1.28-.14.12-.04.25-.07.41-.1.16-.03.33-.04.51-.05.07-.24.13-.47.2-.69.07-.22.14-.44.21-.65.07-.21.15-.43.24-.64s.18-.44.29-.67c.14-.3.29-.57.46-.81.17-.24.34-.45.52-.64.18-.19.37-.35.56-.48.19-.13.39-.24.58-.33.19-.09.38-.15.57-.19.19-.04.36-.06.53-.06.25,0,.46.03.64.1.18.07.32.15.43.26s.18.23.22.36c.04.13.04.27.01.41-.02.11-.06.2-.12.29-.05.08-.12.16-.19.21-.07.06-.15.1-.24.13-.09.03-.17.05-.26.05-.12,0-.24-.03-.35-.09v-.04c.07-.11.13-.21.17-.3.04-.08.08-.17.1-.26.03-.12.03-.23,0-.32-.03-.09-.08-.16-.15-.22-.07-.06-.15-.1-.24-.12-.09-.03-.19-.04-.29-.04-.29,0-.54.06-.77.19-.23.13-.43.3-.62.53-.18.22-.35.49-.5.79-.15.3-.28.63-.4.98-.12.35-.23.72-.34,1.1-.11.38-.21.77-.31,1.15Z"/>
  </g>
  <g>
    <rect class="cls-2" x="61.37" y="106.84" width="41.04" height=".54"/>
    <rect class="cls-2" x="2.33" y="106.84" width="41.04" height=".54"/>
  </g>
</svg>