<?xml version="1.0" encoding="UTF-8"?>
<svg id="Layer_1" data-name="Layer 1" xmlns="http://www.w3.org/2000/svg" viewBox="0 0 214.66 179.86">
  <defs>
    <style>
      .cls-1 {
        fill: #231f20;
        stroke-width: 0px;
      }
    </style>
  </defs>
  <g>
    <path class="cls-1" d="M139.61,106.53v28.45s1.18,18.16-10.6,21.13v-49.58h-6.97v49.57c-11.75-3-10.57-21.12-10.57-21.12v-28.45h-7v28.45s1.18,18.13-10.57,21.12v-49.57h-6.97v49.58c-11.79-2.97-10.6-21.13-10.6-21.13v-28.45h-6.97v28.45c.04,1.68-.03,4.04.27,5.66,1.33,8.84,7.37,16.21,17.33,17.59.01,1.32.05,2.73.24,3.81,1.48,9.81,8.77,17.82,20.77,17.82s19.29-8.01,20.77-17.82c.19-1.06.23-2.49.24-3.81,9.95-1.38,15.99-8.75,17.33-17.59.29-1.6.23-4.06.27-5.66v-28.45h-6.97ZM107.97,177.92c-12.68,0-14.03-14.47-14.1-19.69,6.38-.89,11.15-4.25,14.1-8.87,2.95,4.63,7.72,7.98,14.1,8.87-.07,5.22-1.42,19.69-14.1,19.69Z"/>
    <path class="cls-1" d="M146.31,39.22c-1.33-8.84-7.37-16.21-17.33-17.59-.01-1.32-.05-2.73-.24-3.81C127.26,8.01,119.97,0,107.97,0c-12.01,0-19.29,8.01-20.77,17.82-.19,1.06-.23,2.49-.24,3.81-9.95,1.38-15.99,8.75-17.33,17.59-.29,1.6-.23,4.06-.27,5.66v28.45h6.97v-28.45s-1.18-18.16,10.6-21.13h0v49.58h6.97V23.76c11.75,2.99,10.57,21.12,10.57,21.12v28.45h7v-28.45s-1.18-18.13,10.57-21.12h0v49.57h6.97V23.75c11.79,2.97,10.6,21.13,10.6,21.13v28.45h6.97v-28.45c-.04-1.68.03-4.04-.27-5.66ZM107.97,30.51c-2.95-4.63-7.72-7.98-14.1-8.87.07-5.22,1.42-19.69,14.1-19.69s14.03,14.47,14.1,19.69c-6.38.89-11.15,4.25-14.1,8.87Z"/>
  </g>
  <g>
    <g>
      <path class="cls-1" d="M10.58,99.59H0v-.26c.05,0,.08-.68.08-1.7v-15.54c0-1.02-.03-1.7-.08-1.7v-.26h3.4v.26h-.03s-.05.68-.08,1.7v16.69h4.13c1.41,0,2.56-.05,2.9-.13l.08-.03h.31c-.03.16-.05.39-.08.55l-.05.42Z"/>
      <path class="cls-1" d="M22.31,80c5.49,0,8.31,4.55,8.31,9.87s-2.82,9.85-8.31,9.85-8.31-4.55-8.31-9.85,2.82-9.87,8.31-9.87ZM27.04,89.87c0-4.88-1.62-9.04-4.73-9.04s-4.73,4.15-4.73,9.04,1.62,9.04,4.73,9.04,4.73-4.15,4.73-9.04Z"/>
      <path class="cls-1" d="M48.18,99.62c-3.61,0-3.84-.1-5.85-2.77l-4.83-6.45v7.26c.03,1.02.05,1.7.08,1.7h.03v.26h-3.42v-.26c.05,0,.08-.68.08-1.7v-15.54c0-1.02-.03-1.7-.08-1.7v-.26h5.8c3.76,0,6.27,1.91,6.27,4.78,0,2.32-2.04,4.05-5.33,4.7l5.96,7.84c1.07,1.41,1.18,1.46,2.27,1.46h.13v.65l-1.1.03ZM42.83,84.94c0-2.38-1.15-3.94-2.85-3.94h-2.48v8.12h.29c3.03,0,5.04-1.67,5.04-4.18Z"/>
      <path class="cls-1" d="M51.58,99.59h-.08v-.26c.05,0,.08-.68.08-1.7v-15.54c0-1.02-.03-1.7-.08-1.7v-.26h5.67c5.64,0,9.38,3.89,9.38,9.74s-3.45,9.72-8.59,9.72h-6.37ZM57.96,98.76c3.21,0,5.36-3.55,5.36-8.88s-2.46-8.91-6.14-8.91h-2.35v17.79h3.13Z"/>
      <path class="cls-1" d="M78.91,82.33c-.55-.55-1.15-.99-1.62-1.2-.5-.18-1.04-.29-1.62-.29-1.8,0-3,1.52-3,3.76,0,1.36,1.62,2.98,4.05,4.08,2.46,1.1,4.08,3.32,4.08,5.54,0,3.32-2.19,5.54-5.51,5.54-2.48,0-4.47-.65-4.91-1.62l.37-.18-.37.18v-.47h.21c.05.03.16.08.24.13.05.03.1.05.16.08l.16-.08c.05.08.13.16.21.24.91.44,2.01.76,2.93.84v.03c.34.03.68.05,1.05.05,1.93,0,3.21-1.36,3.21-3.4,0-1.52-1.7-3.27-4.23-4.41-2.32-1.04-3.87-3.13-3.87-5.22,0-3.53,2.17-5.88,5.41-5.88,1.62,0,3.16.99,3.84,2.48l-.24.1.24-.13v.37h-.21c-.05-.05-.1-.13-.16-.18l-.1.05c-.05-.13-.13-.26-.21-.39h-.08Z"/>
      <path class="cls-1" d="M125.7,99.59h-10.58v-.26c.05,0,.08-.68.08-1.7v-15.54c0-1.02-.03-1.7-.08-1.7v-.26h3.4v.26h-.03s-.05.68-.08,1.7v16.69h4.13c1.41,0,2.56-.05,2.9-.13l.08-.03h.31c-.03.16-.05.39-.08.55l-.05.42Z"/>
      <path class="cls-1" d="M139.66,99.59h-10.58v-.26c.05,0,.08-.68.08-1.7v-15.54c0-1.02-.03-1.7-.08-1.7v-.26h10.61v.97h-.18l-.13-.03c-.37-.05-1.67-.1-3.24-.1h-3.74v7.13h2.64c1.33,0,2.35-.03,2.53-.08h.26v.99h-.21l-.05-.03c-.18-.05-1.2-.08-2.53-.08h-2.64v9.87h3.87c1.57,0,2.87-.05,3.27-.13l.1-.03s.08.03.18,0c-.03.18-.05.39-.08.55l-.08.42Z"/>
      <path class="cls-1" d="M154.26,80.13h1.05v.26c-.05,0-.08.68-.08,1.7v18.03h-1.36l-1.1-1.91-8.73-14.92v14.34c0,1.02.03,1.7.08,1.7v.26h-1.12v-.26c.05,0,.08-.68.08-1.7v-15.54c0-1.02-.03-1.7-.08-1.7v-.26h2.95l8.31,14.42v-12.46c0-1.02-.03-1.7-.08-1.7h-.03v-.26h.1Z"/>
      <path class="cls-1" d="M158.37,99.59h-.08v-.26c.05,0,.08-.68.08-1.7v-15.54c0-1.02-.03-1.7-.08-1.7v-.26h5.67c5.64,0,9.38,3.89,9.38,9.74s-3.45,9.72-8.59,9.72h-6.37ZM164.74,98.76c3.21,0,5.36-3.55,5.36-8.88s-2.46-8.91-6.14-8.91h-2.35v17.79h3.13Z"/>
      <path class="cls-1" d="M177.16,99.59h-.08v-.26c.05,0,.08-.68.08-1.7v-15.54c0-1.02-.03-1.7-.08-1.7v-.26h3.4v.26c-.05,0-.08.68-.08,1.7v15.54c0,1.02.03,1.7.08,1.7v.26h-3.32Z"/>
      <path class="cls-1" d="M195.14,80.13h1.05v.26c-.05,0-.08.68-.08,1.7v18.03h-1.36l-1.1-1.91-8.73-14.92v14.34c0,1.02.03,1.7.08,1.7v.26h-1.12v-.26c.05,0,.08-.68.08-1.7v-15.54c0-1.02-.03-1.7-.08-1.7v-.26h2.95l8.31,14.42v-12.46c0-1.02-.03-1.7-.08-1.7h-.03v-.26h.1Z"/>
      <path class="cls-1" d="M211.65,92.38c0-1.02-.03-1.7-.08-1.7v-.26h3.08v.26h-.03s-.05.68-.05,1.7v5.8c-1.59.91-4.08,1.52-6.24,1.52-5.38,0-8.96-3.94-8.96-9.85s3.58-9.87,8.96-9.87c2.95,0,5.41,1.1,6.19,2.72v.5h-.24c-.05-.05-.16-.1-.21-.16-.03-.03-.05-.05-.08-.08l-.24.1c-.08-.18-.18-.34-.31-.5-.91-.63-1.72-1.1-2.19-1.31-.84-.26-1.83-.42-2.9-.42-3.21,0-5.38,3.61-5.38,9.04s2.17,9.04,5.38,9.04c1.07,0,2.25-.16,3.32-.44v-6.06l-.03-.03Z"/>
    </g>
    <g>
      <path class="cls-1" d="M90.2,91.47c.09-.37.21-.75.38-1.14.17-.38.37-.76.6-1.12.23-.36.5-.7.8-1.01.3-.32.62-.59.96-.83s.71-.42,1.1-.56c.39-.14.8-.21,1.22-.21.47,0,.87.1,1.19.3.32.2.56.46.73.79.17.33.27.7.3,1.12.03.42,0,.84-.1,1.28-.09.37-.21.75-.38,1.14-.17.38-.37.76-.6,1.12-.24.36-.5.7-.8,1.01-.3.32-.62.59-.96.83-.35.24-.71.42-1.1.56s-.8.21-1.22.21c-.47,0-.87-.1-1.19-.3-.32-.2-.56-.46-.73-.79-.17-.33-.27-.7-.3-1.12-.03-.42,0-.84.1-1.28ZM91.65,90.94c-.06.25-.1.51-.12.76-.02.26-.02.51,0,.75.03.24.07.46.15.67.07.21.17.39.3.55.13.15.29.28.47.37.18.09.4.13.65.13.27,0,.52-.06.75-.17.23-.12.44-.27.64-.46.19-.19.37-.41.52-.66.15-.25.29-.5.41-.77s.22-.53.31-.78c.08-.26.15-.5.2-.71.06-.26.1-.51.12-.77.02-.26.02-.5,0-.74-.03-.24-.08-.46-.15-.67-.07-.21-.17-.39-.3-.54s-.29-.27-.47-.36c-.18-.09-.4-.13-.65-.13-.27,0-.52.06-.75.17-.23.11-.44.27-.64.46-.19.19-.37.41-.52.66-.15.25-.29.5-.41.76-.12.26-.22.52-.31.78-.08.26-.15.5-.2.71Z"/>
      <path class="cls-1" d="M102.89,87.05c.18,0,.36.01.53.02.17,0,.33,0,.48,0,.15,0,.28,0,.4,0,.12,0,.22,0,.31,0,.17,0,.33,0,.49-.02.15-.01.29-.02.4-.03,0,.14,0,.25-.02.33-.04.16-.13.27-.28.32-.15.05-.35.08-.6.08s-.54-.01-.84-.04c-.31-.03-.65-.05-1.02-.08-.12.44-.25.92-.39,1.44-.14.52-.29,1.05-.46,1.61s-.34,1.12-.52,1.69c-.18.57-.38,1.13-.58,1.67s-.41,1.06-.63,1.55c-.22.49-.44.94-.67,1.34-.36.63-.73,1.16-1.1,1.58-.37.42-.74.76-1.11,1.02-.37.26-.73.44-1.09.55-.36.11-.7.16-1.03.16-.28,0-.54-.03-.77-.09-.23-.06-.42-.15-.57-.26-.15-.11-.26-.23-.33-.37-.07-.14-.08-.29-.05-.45.02-.09.06-.18.12-.26.06-.09.13-.16.22-.23.09-.07.19-.12.29-.16.11-.04.22-.06.33-.06.06.19.14.36.24.49.1.13.21.25.34.33.13.09.27.15.42.19s.31.06.47.06c.42,0,.82-.14,1.18-.41.36-.28.7-.67,1.02-1.17.32-.5.62-1.11.9-1.83.28-.71.55-1.51.81-2.38.26-.87.52-1.82.78-2.83.25-1.01.51-2.08.78-3.19-.35,0-.67.02-.97.04-.3.02-.56.07-.78.14,0-.03,0-.07,0-.11.02-.09.08-.17.18-.25.1-.08.24-.14.4-.2.17-.06.36-.11.59-.14.22-.04.47-.06.73-.07.09-.35.19-.68.28-.99.1-.32.2-.63.3-.94.11-.31.22-.62.34-.93s.26-.63.42-.96c.2-.43.42-.82.66-1.17.24-.35.49-.65.75-.92.26-.27.53-.5.81-.69.28-.19.56-.35.83-.47.28-.12.55-.21.82-.27.27-.06.52-.09.77-.09.36,0,.67.05.92.14.26.09.46.22.62.37s.27.33.32.52c.06.19.06.39.02.59-.04.15-.09.29-.17.42-.08.12-.17.22-.28.31-.11.08-.22.15-.35.19-.12.04-.25.07-.38.07-.17,0-.34-.04-.51-.13v-.06c.1-.16.19-.3.25-.43.06-.12.11-.25.14-.38.04-.18.04-.33,0-.46-.04-.13-.11-.23-.21-.31-.1-.08-.21-.14-.35-.18-.13-.04-.27-.06-.41-.06-.41,0-.79.09-1.11.28-.33.18-.63.44-.89.76-.26.32-.5.7-.72,1.14-.21.44-.4.91-.58,1.42-.17.51-.34,1.04-.49,1.59-.15.55-.3,1.1-.45,1.65Z"/>
    </g>
  </g>
</svg>