<?xml version="1.0" encoding="UTF-8"?>
<svg id="Layer_1" data-name="Layer 1" xmlns="http://www.w3.org/2000/svg" viewBox="0 0 177.24 78.81">
  <defs>
    <style>
      .cls-1 {
        fill: #aa712c;
        stroke-width: 0px;
      }
    </style>
  </defs>
  <g>
    <path class="cls-1" d="M32.53,34.73h-.01s-.93,2.8-.93,2.8c-.64,1.52,1.73,3.74,3.02,1.88l1.81-3.43h0c.11.02.21.05.32.08,1.49.4,2.85-.16,3.64-1.78l.26-.64-1.64-1.13c-.16-.11-.22-.31-.15-.49.1-.25.4-.34.62-.18l1.47,1.04.67-1.66-1.64-1.13c-.16-.11-.22-.31-.15-.49.1-.25.4-.34.62-.18l1.47,1.05.67-1.66-1.64-1.13c-.16-.11-.22-.31-.15-.49.1-.25.4-.34.62-.18l1.47,1.04.67-1.66-1.64-1.13c-.16-.11-.22-.31-.15-.49.1-.25.4-.34.62-.18l1.47,1.05c.24-.66.9-3.05-1.33-4.74-.86-.65-1.69-1.2-2.52-1.61-.74-.02-1.3.34-1.55.9l-.32.74c-.06.13-.19.21-.34.21-.06,0-.12-.01-.17-.04-.2-.09-.3-.31-.22-.49l.29-.67c.26-.56.62-1.06,1.34-1.06-.28-.1-.56-.18-.84-.24t0,0c-.74.12-1.56.76-1.8,1.27l-.32.74c-.06.13-.19.21-.34.21-.06,0-.12-.01-.17-.04-.2-.09-.3-.31-.22-.49l.29-.67c.2-.43.63-.93,1.16-1.15-.36.01-.69.06-.99.14h0c-.38.26-.65.74-.83,1.14l-.25.54c-.06.13-.19.21-.34.21-.06,0-.12,0-.17-.04-.1-.06-.21-.23-.16-.46l.16-.51c-.78.75-1,1.64-1,1.64.32-.01.66,0,1,.02.3.02.49.33.38.6-.07.17-.23.28-.41.28-.01,0-.02,0-.03,0-.46-.04-.9-.05-1.31-.01l-.71,1.7c.08-.11.21-.17.34-.17h0c.25,0,.49.02.75.04.3.02.49.32.38.6-.06.17-.23.27-.4.27-.01,0-.02,0-.03,0-.47-.04-.93-.04-1.35,0l-.77,1.84c.12-.2.34-.31.57-.31h0c.21,0,.42.01.63.03.3.02.49.33.38.6-.07.17-.23.28-.41.28-.01,0-.02,0-.03,0-.48-.04-.96-.04-1.39,0l-.83,2,.12-.2c.11-.17.3-.27.5-.27.22,0,.45.01.68.03.3.02.49.32.38.6-.07.17-.23.27-.41.27-.01,0-.02,0-.03,0-.5-.04-.98-.05-1.42,0l-.68,1.63c-.29,1.5,1.03,2.76,3.42,3.79ZM34.21,38.84c-.1.38-.44.62-.74.54-.3-.08-.47-.46-.36-.84s.44-.62.74-.54c.3.08.47.46.36.84ZM35.6,21.74h0c.08-.23.29-.36.51-.32.5.1.99.2,1.44.31.96.23,2.09.94,2.63,1.31.19.13.26.38.18.61-.11.28-.42.4-.67.24-.6-.38-1.66-1-2.55-1.21-.37-.09-.77-.18-1.2-.27-.29-.06-.46-.38-.35-.68ZM34.62,24.16v-.02c.09-.22.3-.35.51-.31.49.1.97.2,1.42.31.94.23,2.06.95,2.59,1.33.19.13.26.39.18.61-.1.29-.42.4-.66.25-.59-.38-1.64-1.01-2.51-1.22-.36-.09-.76-.18-1.18-.27-.29-.06-.45-.39-.35-.68ZM33.65,26.59v-.02c.08-.23.29-.36.5-.32.48.1.95.21,1.39.32.93.24,2.02.97,2.54,1.36.18.13.26.4.17.63-.1.29-.41.41-.65.25-.58-.39-1.61-1.03-2.47-1.25-.35-.09-.74-.18-1.15-.27-.28-.06-.44-.4-.34-.7ZM32.67,28.99v-.02c.09-.21.3-.33.51-.29.49.09.97.19,1.41.3.94.22,2.05.9,2.59,1.26.19.12.26.37.18.58-.1.27-.41.38-.66.23-.59-.36-1.63-.96-2.51-1.16-.36-.08-.75-.17-1.17-.25-.29-.06-.45-.37-.34-.65ZM32.55,32.18l.4-1.36c.05-.18.24-.28.42-.23.15.04.24.18.24.32,0,.03,0,.06-.01.1l-.37,1.25c-.18.87.69,1.68,1.57,2.27-.14.06-.3.09-.45.09-.23,0-.45-.07-.64-.2-.85-.59-1.34-1.42-1.16-2.24ZM30.99,31.69l.38-1.28c.05-.18.24-.28.42-.23.15.04.24.18.24.32,0,.03,0,.06-.01.1l-.4,1.35c-.23.81.37,1.53,1.23,2.07-.08.02-.16.03-.25.03-.2,0-.4-.06-.56-.18-.75-.54-1.25-1.34-1.05-2.19ZM29.75,30.9l.24-.81c.05-.18.24-.28.42-.23.15.04.24.18.24.32,0,.03,0,.06-.01.1l-.32,1.07c-.26.93-.13,1.38.72,2.19-1.1-.63-1.53-1.49-1.29-2.64Z"/>
    <path class="cls-1" d="M49.25,62.82c-.71-4.98-7.09-9.25-11.56-10.28-2.45-.57-4.76-.35-6.63.39l2.41-10.83h-.02c-.55,0-1.11-.22-1.55-.57-.13-.11-.33-.04-.37.13l-2.82,12.68c-1.26,1.09-2.01,2.53-2.01,4.1,0,3.87,5.25,3.96,5.25,3.96-.87-.81-1.47-1.95-1.32-3.68.3-3.56,3.8-5.71,8.04-4.17,3.11,1.13,5.79,5.28,5.09,9.7-.71,4.49-4.25,9.16-10.12,9.16-2.33,0-4.42-1.16-6.56-2.69l1.51-6.78c.01-.06-.02-.12-.08-.15-.11-.04-.21-.09-.32-.14-.43-.2-.85-.48-1.15-.89-.07-.09-.21-.06-.23.05l-1.47,6.61c-3.09-2.35-6.43-5.01-10.83-5.76.05-.64.05-2.58.05-3.71V12.84c0-.13-.08-.24-.2-.29l-.68-.26c-.14-.05-.23-.19-.23-.34v-2.98c0-.13-.08-.24-.2-.29l-.67-.25c-.09-.04-.17-.11-.21-.2L9.11.07c-.04-.09-.16-.09-.2,0l-3.58,8.68c-.04.09-.1.15-.19.19l-.5.22c-.11.05-.18.16-.18.28v2.99c0,.15-.09.28-.23.34l-.58.22c-.12.05-.2.16-.2.29v52.51c0,.05-.02.1-.06.13-1.77,1.66-2.97,3.29-3.38,5.03,1.49-1.63,3.02-2.71,4.76-3.39V13.78c0-.15.09-.28.23-.33l.58-.22c.12-.05.2-.16.2-.3v-2.98c0-.15.09-.28.23-.33l.31-.12c.1-.04.18-.12.21-.22l2.36-6.69c.02-.07.12-.05.12.02v64.07c.56-.11,1.74-.23,2.35-.23,7.59,0,8.39,3.63,17.95,7.69,8.08,3.43,21.7,1.03,19.94-11.32Z"/>
    <path class="cls-1" d="M28.14,75.86c-7.73-3.12-12.02-7.91-19.42-7.02-2.14.26-5.03.99-6.96,2.5,2.56-1.06,5.02-1.34,7.71-.89,6.46,1.09,11.04,5.91,19.35,7.88,4.09.97,12.16.78,16.71-3.92-4.58,2.84-11.87,3.67-17.39,1.45Z"/>
  </g>
  <g>
    <path class="cls-1" d="M77.22,31.26h-10.18v-.25c.05,0,.08-.65.08-1.63v-14.95c0-.98-.03-1.63-.08-1.63v-.25h3.27v.25h-.03s-.05.65-.08,1.63v16.06h3.97c1.36,0,2.46-.05,2.79-.13l.08-.03h.3c-.03.15-.05.38-.08.53l-.05.4Z"/>
    <path class="cls-1" d="M87.22,12.41c5.28,0,7.99,4.37,7.99,9.5s-2.71,9.48-7.99,9.48-7.99-4.37-7.99-9.48,2.71-9.5,7.99-9.5ZM91.77,21.91c0-4.7-1.56-8.7-4.55-8.7s-4.55,4-4.55,8.7,1.56,8.7,4.55,8.7,4.55-4,4.55-8.7Z"/>
    <path class="cls-1" d="M110.83,31.29c-3.47,0-3.69-.1-5.63-2.66l-4.65-6.21v6.99c.03.98.05,1.63.08,1.63h.03v.25h-3.29v-.25c.05,0,.08-.65.08-1.63v-14.95c0-.98-.03-1.63-.08-1.63v-.25h5.58c3.62,0,6.03,1.83,6.03,4.6,0,2.24-1.96,3.9-5.13,4.52l5.73,7.54c1.03,1.36,1.13,1.41,2.19,1.41h.13v.63l-1.06.03ZM105.67,17.16c0-2.29-1.11-3.8-2.74-3.8h-2.39v7.82h.28c2.92,0,4.85-1.61,4.85-4.02Z"/>
    <path class="cls-1" d="M112.81,31.26h-.08v-.25c.05,0,.08-.65.08-1.63v-14.95c0-.98-.02-1.63-.08-1.63v-.25h5.45c5.43,0,9.02,3.75,9.02,9.38s-3.32,9.35-8.27,9.35h-6.13ZM118.95,30.46c3.09,0,5.15-3.42,5.15-8.55s-2.36-8.57-5.91-8.57h-2.26v17.12h3.02Z"/>
    <path class="cls-1" d="M137.82,14.65c-.53-.53-1.11-.95-1.56-1.16-.48-.18-1.01-.28-1.56-.28-1.73,0-2.89,1.46-2.89,3.62,0,1.31,1.56,2.87,3.9,3.92,2.36,1.06,3.92,3.19,3.92,5.33,0,3.19-2.11,5.33-5.3,5.33-2.39,0-4.3-.63-4.72-1.56l.35-.18-.35.18v-.45h.2c.05.02.15.08.23.13.05.03.1.05.15.08l.15-.08c.05.08.13.15.2.23.88.43,1.94.73,2.81.8v.03c.33.03.65.05,1.01.05,1.86,0,3.09-1.31,3.09-3.27,0-1.46-1.63-3.14-4.07-4.25-2.24-1.01-3.72-3.02-3.72-5.03,0-3.39,2.09-5.66,5.2-5.66,1.56,0,3.04.96,3.69,2.39l-.23.1.23-.13v.35h-.2c-.05-.05-.1-.13-.15-.18l-.1.05c-.05-.13-.13-.25-.2-.38h-.08Z"/>
    <path class="cls-1" d="M156,12.41c5.28,0,7.99,4.37,7.99,9.5s-2.71,9.48-7.99,9.48-7.99-4.37-7.99-9.48,2.71-9.5,7.99-9.5ZM160.55,21.91c0-4.7-1.56-8.7-4.55-8.7s-4.55,4-4.55,8.7,1.56,8.7,4.55,8.7,4.55-4,4.55-8.7Z"/>
    <path class="cls-1" d="M177.24,13.47h-.18l-.13-.03c-.35-.05-1.61-.1-3.12-.1h-4.35v7.01h2.29c1.28,0,2.26-.03,2.44-.08h.25v.96h-.2l-.05-.03c-.18-.05-1.16-.08-2.44-.08h-2.29v8.24c.02.98.05,1.63.13,1.63h.02v.25h-3.34v-.25c.05,0,.08-.65.08-1.63v-14.95c0-.98-.02-1.63-.08-1.63v-.25h10.96v.93Z"/>
    <path class="cls-1" d="M78.91,58.49h-11.69v-.29c.06,0,.09-.75.09-1.88v-17.18c0-1.13-.03-1.88-.09-1.88v-.29h3.75v.29h-.03s-.06.75-.09,1.88v18.45h4.56c1.56,0,2.83-.06,3.21-.14l.09-.03h.35c-.03.17-.06.43-.09.61l-.06.46Z"/>
    <path class="cls-1" d="M94.34,58.49h-11.69v-.29c.06,0,.09-.75.09-1.88v-17.18c0-1.13-.03-1.88-.09-1.88v-.29h11.72v1.07h-.2l-.14-.03c-.4-.06-1.85-.12-3.58-.12h-4.13v7.88h2.92c1.47,0,2.6-.03,2.8-.09h.29v1.1h-.23l-.06-.03c-.2-.06-1.33-.09-2.8-.09h-2.92v10.91h4.27c1.73,0,3.18-.06,3.61-.14l.12-.03s.09.03.2,0c-.03.2-.06.43-.09.61l-.09.46Z"/>
    <path class="cls-1" d="M110.48,36.98h1.15v.29c-.06,0-.09.75-.09,1.88v19.92h-1.5l-1.21-2.11-9.64-16.49v15.85c0,1.13.03,1.88.09,1.88v.29h-1.24v-.29c.06,0,.09-.75.09-1.88v-17.18c0-1.13-.03-1.88-.09-1.88v-.29h3.26l9.18,15.94v-13.77c0-1.13-.03-1.88-.09-1.88h-.03v-.29h.12Z"/>
    <path class="cls-1" d="M115.02,58.49h-.09v-.29c.06,0,.09-.75.09-1.88v-17.18c0-1.13-.03-1.88-.09-1.88v-.29h6.27c6.24,0,10.37,4.3,10.37,10.77s-3.81,10.74-9.5,10.74h-7.05ZM122.07,57.57c3.55,0,5.92-3.93,5.92-9.82s-2.71-9.85-6.79-9.85h-2.6v19.66h3.46Z"/>
    <path class="cls-1" d="M135.79,58.49h-.09v-.29c.06,0,.09-.75.09-1.88v-17.18c0-1.13-.03-1.88-.09-1.88v-.29h3.75v.29c-.06,0-.09.75-.09,1.88v17.18c0,1.13.03,1.88.09,1.88v.29h-3.67Z"/>
    <path class="cls-1" d="M155.66,36.98h1.15v.29c-.06,0-.09.75-.09,1.88v19.92h-1.5l-1.21-2.11-9.64-16.49v15.85c0,1.13.03,1.88.09,1.88v.29h-1.24v-.29c.06,0,.09-.75.09-1.88v-17.18c0-1.13-.03-1.88-.09-1.88v-.29h3.26l9.18,15.94v-13.77c0-1.13-.03-1.88-.09-1.88h-.03v-.29h.12Z"/>
    <path class="cls-1" d="M173.92,50.53c0-1.13-.03-1.88-.09-1.88v-.29h3.41v.29h-.03s-.06.75-.06,1.88v6.41c-1.76,1.01-4.5,1.67-6.9,1.67-5.95,0-9.9-4.36-9.9-10.89s3.96-10.91,9.9-10.91c3.26,0,5.98,1.21,6.84,3v.55h-.26c-.06-.06-.17-.12-.23-.17-.03-.03-.06-.06-.09-.09l-.26.12c-.09-.2-.2-.38-.35-.55-1.01-.69-1.91-1.21-2.43-1.44-.92-.29-2.02-.46-3.21-.46-3.55,0-5.95,3.98-5.95,9.99s2.4,9.99,5.95,9.99c1.18,0,2.48-.17,3.67-.49v-6.7l-.03-.03Z"/>
  </g>
  <g>
    <path class="cls-1" d="M71.65,69.98c0,.96-.89,1.68-2.07,1.68h-1.1v2.03h-1.45v-5.39h2.55c1.17,0,2.07.72,2.07,1.68ZM70.17,69.98c0-.92-.4-1.53-1.01-1.53h-.68v3.05h.68c.61,0,1.01-.61,1.01-1.53Z"/>
    <path class="cls-1" d="M84.19,71c0-1.58,1.26-2.77,2.92-2.77s2.92,1.19,2.92,2.77-1.26,2.77-2.92,2.77-2.92-1.19-2.92-2.77ZM88.55,71c0-1.58-.58-2.62-1.44-2.62s-1.44,1.04-1.44,2.62.58,2.62,1.44,2.62,1.44-1.04,1.44-2.62Z"/>
    <path class="cls-1" d="M108.19,71c0,1.53-1.29,2.7-2.99,2.7h-2.28v-5.39h2.28c1.7,0,2.99,1.16,2.99,2.7ZM106.71,71c0-1.53-.69-2.54-1.73-2.54h-.62v5.09h.62c1.04,0,1.73-1.01,1.73-2.54Z"/>
    <path class="cls-1" d="M120.83,71.01c0-1.56,1.26-2.78,2.91-2.78,1.26,0,2.13.73,2.13,1.5h-.17c0-.62-.56-1.17-1.49-1.17-1.16,0-1.9.89-1.9,2.44s.72,2.44,1.9,2.44c.71,0,1.23-.32,1.52-.84h.18c-.32.67-1.12,1.17-2.14,1.17-1.62,0-2.94-1.16-2.94-2.77Z"/>
    <path class="cls-1" d="M141.16,72.32h-2.24l-.6,1.38h-.22l2.37-5.39h.47l2.36,5.39h-1.53l-.6-1.38ZM141.09,72.16l-1.06-2.43-1.06,2.43h2.11Z"/>
    <path class="cls-1" d="M155.64,72.24h.17c0,.74.72,1.29,1.65,1.29.72,0,1.24-.32,1.24-.81,0-.52-.59-.78-1.25-1.06-.82-.35-1.74-.72-1.74-1.76s.89-1.67,2.09-1.67c1.06,0,1.9.62,1.9,1.45h-.17c0-.72-.65-1.22-1.46-1.22-.71,0-1.23.35-1.23.87,0,.58.64.83,1.33,1.11.83.33,1.73.69,1.73,1.67s-.86,1.66-2.16,1.66c-1.16,0-2.1-.66-2.1-1.53Z"/>
    <path class="cls-1" d="M176.49,68.46h-1.54v5.24h-1.45v-5.24h-1.55v-.15h4.54v.15Z"/>
  </g>
</svg>