<?xml version="1.0" encoding="UTF-8"?>
<svg id="Layer_1" data-name="Layer 1" xmlns="http://www.w3.org/2000/svg" viewBox="0 0 49.45 78.88">
  <defs>
    <style>
      .cls-1 {
        fill: #fbcc91;
        stroke-width: 0px;
      }
    </style>
  </defs>
  <path class="cls-1" d="M32.56,34.76h-.01s-.93,2.81-.93,2.81c-.64,1.52,1.73,3.74,3.02,1.88l1.81-3.43h0c.11.02.22.05.32.08,1.49.4,2.86-.16,3.64-1.78l.26-.64-1.64-1.13c-.16-.11-.22-.31-.15-.49.1-.25.4-.34.62-.18l1.47,1.05.67-1.66-1.64-1.13c-.16-.11-.22-.31-.15-.49.1-.25.4-.34.62-.18l1.47,1.05.67-1.66-1.64-1.13c-.16-.11-.22-.31-.15-.49.1-.25.4-.34.62-.18l1.47,1.05.67-1.66-1.64-1.13c-.16-.11-.22-.31-.15-.49.1-.25.4-.34.62-.18l1.47,1.05c.24-.66.9-3.05-1.33-4.75-.86-.65-1.69-1.2-2.53-1.62-.74-.02-1.3.34-1.55.9l-.32.74c-.06.13-.19.21-.34.21-.06,0-.12-.01-.17-.04-.2-.09-.3-.31-.22-.49l.29-.67c.26-.56.62-1.06,1.34-1.06-.28-.1-.56-.18-.84-.24t0,0c-.74.12-1.56.76-1.8,1.27l-.32.74c-.06.13-.19.21-.34.21-.06,0-.12-.01-.17-.04-.2-.09-.3-.31-.22-.49l.29-.67c.2-.43.63-.93,1.16-1.16-.36.01-.69.06-.99.14h0c-.38.26-.65.74-.84,1.14l-.25.54c-.06.13-.19.21-.34.21-.06,0-.12,0-.17-.04-.1-.06-.21-.23-.17-.46l.16-.51c-.78.75-1,1.65-1,1.65.32-.01.66,0,1,.02.3.02.49.33.38.6-.07.17-.23.28-.41.28-.01,0-.02,0-.03,0-.46-.04-.9-.05-1.31-.01l-.71,1.7c.08-.11.21-.17.34-.17h0c.25,0,.49.02.76.04.3.02.49.33.38.6-.06.17-.23.27-.4.27-.01,0-.02,0-.03,0-.47-.04-.93-.04-1.35,0l-.77,1.84c.12-.2.34-.31.57-.31h0c.21,0,.42.01.63.03.3.02.49.33.38.6-.07.17-.23.28-.41.28-.01,0-.02,0-.03,0-.48-.04-.96-.04-1.39,0l-.84,2,.12-.2c.11-.17.3-.27.5-.27.22,0,.45.01.68.03.3.02.49.33.38.6-.07.17-.23.27-.41.27-.01,0-.02,0-.03,0-.5-.04-.98-.05-1.43,0l-.68,1.63c-.29,1.5,1.03,2.77,3.42,3.79ZM34.24,38.87c-.1.38-.44.62-.74.54-.3-.08-.47-.46-.36-.84s.44-.62.74-.54c.3.08.47.46.36.84ZM35.63,21.75h0c.08-.23.3-.36.51-.32.5.1.99.2,1.44.31.96.23,2.09.94,2.63,1.31.19.13.26.38.18.61-.11.28-.42.4-.67.24-.6-.38-1.66-1-2.55-1.21-.37-.09-.78-.18-1.2-.27-.29-.06-.46-.38-.35-.68ZM34.65,24.19v-.02c.09-.22.3-.35.51-.31.49.1.97.2,1.42.31.94.23,2.06.95,2.59,1.33.19.13.26.39.18.61-.1.29-.42.4-.66.25-.59-.38-1.64-1.01-2.51-1.22-.36-.09-.76-.18-1.18-.27-.29-.06-.45-.39-.35-.68ZM33.68,26.62v-.02c.08-.23.29-.36.5-.32.48.1.95.21,1.39.32.93.24,2.02.98,2.54,1.36.18.13.26.4.17.63-.1.3-.41.41-.65.25-.58-.39-1.61-1.03-2.47-1.25-.35-.09-.74-.18-1.15-.27-.28-.06-.44-.4-.34-.7ZM32.7,29.02v-.02c.09-.21.3-.33.51-.29.49.09.97.19,1.41.3.94.22,2.06.91,2.59,1.26.19.12.26.37.18.58-.1.27-.41.38-.66.23-.59-.36-1.64-.96-2.51-1.16-.36-.08-.75-.17-1.17-.25-.29-.06-.45-.37-.34-.65ZM32.58,32.21l.4-1.36c.05-.18.24-.28.42-.23.15.04.24.18.24.32,0,.03,0,.06-.01.1l-.37,1.25c-.18.87.69,1.68,1.57,2.27-.14.06-.3.09-.45.09-.23,0-.45-.07-.65-.2-.85-.59-1.34-1.42-1.16-2.24ZM31.02,31.72l.38-1.28c.05-.18.24-.28.42-.23.15.04.24.18.24.32,0,.03,0,.06-.01.1l-.4,1.35c-.23.81.37,1.54,1.23,2.07-.08.02-.16.03-.25.03-.2,0-.4-.06-.56-.18-.76-.54-1.25-1.34-1.05-2.19ZM29.77,30.93l.24-.81c.05-.18.24-.28.42-.23.15.04.24.18.24.32,0,.03,0,.06-.01.1l-.32,1.07c-.26.93-.13,1.38.72,2.19-1.1-.63-1.53-1.49-1.29-2.64Z"/>
  <path class="cls-1" d="M49.29,62.88c-.71-4.98-7.1-9.25-11.57-10.29-2.45-.57-4.77-.35-6.64.39l2.41-10.84h-.02c-.55,0-1.11-.22-1.55-.57-.13-.11-.33-.04-.37.13l-2.82,12.69c-1.26,1.09-2.01,2.53-2.01,4.1,0,3.88,5.26,3.96,5.26,3.96-.87-.81-1.47-1.95-1.32-3.69.3-3.56,3.8-5.72,8.05-4.17,3.11,1.13,5.8,5.28,5.1,9.71-.71,4.5-4.25,9.16-10.12,9.16-2.33,0-4.42-1.16-6.56-2.69l1.51-6.78c.01-.06-.02-.12-.08-.15-.11-.04-.21-.09-.32-.14-.43-.2-.85-.49-1.15-.89-.07-.09-.21-.06-.23.05l-1.47,6.62c-3.09-2.36-6.44-5.02-10.84-5.76.05-.64.05-2.58.05-3.71V12.85c0-.13-.08-.24-.2-.29l-.68-.26c-.14-.05-.23-.19-.23-.34v-2.98c0-.13-.08-.24-.2-.29l-.67-.25c-.09-.04-.17-.11-.21-.2L9.12.07c-.04-.09-.16-.09-.2,0l-3.59,8.69c-.04.09-.1.15-.19.19l-.5.23c-.11.05-.18.16-.18.28v2.99c0,.15-.09.28-.23.34l-.58.22c-.12.05-.2.16-.2.29v52.56c0,.05-.02.1-.06.13-1.77,1.66-2.97,3.3-3.39,5.04,1.49-1.63,3.02-2.71,4.76-3.39V13.79c0-.15.09-.28.23-.33l.58-.22c.12-.05.2-.16.2-.3v-2.98c0-.15.09-.28.23-.33l.31-.12c.1-.04.18-.12.21-.22l2.36-6.7c.02-.07.13-.05.13.02v64.13c.56-.11,1.74-.23,2.35-.23,7.6,0,8.4,3.63,17.97,7.7,8.08,3.43,21.72,1.03,19.96-11.33Z"/>
  <path class="cls-1" d="M28.16,75.93c-7.73-3.12-12.03-7.92-19.43-7.02-2.14.26-5.04.99-6.97,2.5,2.57-1.06,5.02-1.34,7.71-.89,6.47,1.09,11.05,5.91,19.37,7.89,4.09.97,12.17.78,16.72-3.92-4.58,2.84-11.88,3.68-17.4,1.45Z"/>
</svg>