<?xml version="1.0" encoding="UTF-8"?>
<svg id="Layer_1" data-name="Layer 1" xmlns="http://www.w3.org/2000/svg" viewBox="0 0 99.65 42.19">
  <defs>
    <style>
      .cls-1 {
        fill: #231f20;
        stroke-width: 0px;
      }
    </style>
  </defs>
  <path class="cls-1" d="M9.21,17.05H0v-.23s.07-.59.07-1.48V1.82C.07.93.05.34,0,.34V.11h2.95v.23h-.02s-.05.59-.07,1.48v14.52h3.59c1.23,0,2.23-.05,2.52-.11l.07-.02h.27c-.02.14-.05.34-.07.48l-.05.36Z"/>
  <path class="cls-1" d="M18.25,0c4.77,0,7.23,3.95,7.23,8.59s-2.45,8.57-7.23,8.57-7.23-3.95-7.23-8.57S13.48,0,18.25,0ZM22.37,8.59c0-4.25-1.41-7.86-4.11-7.86s-4.11,3.61-4.11,7.86,1.41,7.86,4.11,7.86,4.11-3.61,4.11-7.86Z"/>
  <path class="cls-1" d="M39.6,17.07c-3.14,0-3.34-.09-5.09-2.41l-4.2-5.61v6.32c.02.89.05,1.48.07,1.48h.02v.23h-2.98v-.23s.07-.59.07-1.48V1.84c0-.89-.02-1.48-.07-1.48v-.23h5.05c3.27,0,5.45,1.66,5.45,4.16,0,2.02-1.77,3.52-4.64,4.09l5.18,6.82c.93,1.23,1.02,1.27,1.98,1.27h.11v.57l-.95.02ZM34.94,4.3c0-2.07-1-3.43-2.48-3.43h-2.16v7.07h.25c2.64,0,4.39-1.45,4.39-3.64Z"/>
  <path class="cls-1" d="M41.39,17.05h-.07v-.23s.07-.59.07-1.48V1.82c0-.89-.02-1.48-.07-1.48V.11h4.93c4.91,0,8.16,3.39,8.16,8.48s-3,8.46-7.48,8.46h-5.55ZM46.94,16.32c2.8,0,4.66-3.09,4.66-7.73s-2.14-7.75-5.34-7.75h-2.05v15.48h2.73Z"/>
  <path class="cls-1" d="M64.01,2.02c-.48-.48-1-.86-1.41-1.05-.43-.16-.91-.25-1.41-.25-1.57,0-2.61,1.32-2.61,3.27,0,1.18,1.41,2.59,3.52,3.55,2.14.95,3.55,2.89,3.55,4.82,0,2.89-1.91,4.82-4.8,4.82-2.16,0-3.89-.57-4.27-1.41l.32-.16-.32.16v-.41h.18s.14.07.2.11c.05.02.09.05.14.07l.14-.07c.05.07.11.14.18.2.8.39,1.75.66,2.55.73v.02c.3.02.59.05.91.05,1.68,0,2.8-1.18,2.8-2.95,0-1.32-1.48-2.84-3.68-3.84-2.02-.91-3.36-2.73-3.36-4.55C56.62,2.07,58.51.02,61.33.02c1.41,0,2.75.86,3.34,2.16l-.2.09.2-.11v.32h-.18s-.09-.11-.14-.16l-.09.05c-.05-.11-.11-.23-.18-.34h-.07Z"/>
  <path class="cls-1" d="M80.45,0c4.77,0,7.23,3.95,7.23,8.59s-2.45,8.57-7.23,8.57-7.23-3.95-7.23-8.57,2.45-8.59,7.23-8.59ZM84.56,8.59c0-4.25-1.41-7.86-4.11-7.86s-4.11,3.61-4.11,7.86,1.41,7.86,4.11,7.86,4.11-3.61,4.11-7.86Z"/>
  <path class="cls-1" d="M99.65.95h-.16l-.11-.02c-.32-.05-1.45-.09-2.82-.09h-3.93v6.34h2.07c1.16,0,2.05-.02,2.2-.07h.23v.86h-.18l-.05-.02c-.16-.05-1.05-.07-2.2-.07h-2.07v7.45c.02.89.05,1.48.11,1.48h.02v.23h-3.02v-.23s.07-.59.07-1.48V1.82c0-.89-.02-1.48-.07-1.48V.11h9.91v.84Z"/>
  <path class="cls-1" d="M10.74,41.67H.16v-.26c.05,0,.08-.68.08-1.7v-15.54c0-1.02-.03-1.7-.08-1.7v-.26h3.39v.26h-.03s-.05.68-.08,1.7v16.68h4.13c1.41,0,2.56-.05,2.9-.13l.08-.03h.31c-.03.16-.05.39-.08.55l-.05.42Z"/>
  <path class="cls-1" d="M24.69,41.67h-10.57v-.26c.05,0,.08-.68.08-1.7v-15.54c0-1.02-.03-1.7-.08-1.7v-.26h10.6v.97h-.18l-.13-.03c-.37-.05-1.67-.1-3.24-.1h-3.73v7.13h2.64c1.33,0,2.35-.03,2.53-.08h.26v.99h-.21l-.05-.03c-.18-.05-1.2-.08-2.53-.08h-2.64v9.87h3.86c1.57,0,2.87-.05,3.26-.13l.1-.03s.08.03.18,0c-.03.18-.05.39-.08.55l-.08.42Z"/>
  <path class="cls-1" d="M39.29,22.22h1.04v.26c-.05,0-.08.68-.08,1.7v18.02h-1.36l-1.1-1.91-8.72-14.91v14.34c0,1.02.03,1.7.08,1.7v.26h-1.12v-.26c.05,0,.08-.68.08-1.7v-15.54c0-1.02-.03-1.7-.08-1.7v-.26h2.95l8.3,14.41v-12.45c0-1.02-.03-1.7-.08-1.7h-.03v-.26h.1Z"/>
  <path class="cls-1" d="M43.39,41.67h-.08v-.26c.05,0,.08-.68.08-1.7v-15.54c0-1.02-.03-1.7-.08-1.7v-.26h5.67c5.64,0,9.37,3.89,9.37,9.74s-3.45,9.71-8.59,9.71h-6.37ZM49.76,40.84c3.21,0,5.35-3.55,5.35-8.88s-2.45-8.9-6.14-8.9h-2.35v17.78h3.13Z"/>
  <path class="cls-1" d="M62.17,41.67h-.08v-.26c.05,0,.08-.68.08-1.7v-15.54c0-1.02-.03-1.7-.08-1.7v-.26h3.39v.26c-.05,0-.08.68-.08,1.7v15.54c0,1.02.03,1.7.08,1.7v.26h-3.32Z"/>
  <path class="cls-1" d="M80.14,22.22h1.04v.26c-.05,0-.08.68-.08,1.7v18.02h-1.36l-1.1-1.91-8.72-14.91v14.34c0,1.02.03,1.7.08,1.7v.26h-1.12v-.26c.05,0,.08-.68.08-1.7v-15.54c0-1.02-.03-1.7-.08-1.7v-.26h2.95l8.3,14.41v-12.45c0-1.02-.03-1.7-.08-1.7h-.03v-.26h.1Z"/>
  <path class="cls-1" d="M96.65,34.46c0-1.02-.03-1.7-.08-1.7v-.26h3.08v.26h-.03s-.05.68-.05,1.7v5.8c-1.59.91-4.07,1.51-6.24,1.51-5.38,0-8.96-3.94-8.96-9.84s3.58-9.87,8.96-9.87c2.95,0,5.4,1.1,6.19,2.72v.5h-.24c-.05-.05-.16-.1-.21-.16-.03-.03-.05-.05-.08-.08l-.24.1c-.08-.18-.18-.34-.31-.5-.91-.63-1.72-1.1-2.19-1.31-.84-.26-1.83-.42-2.9-.42-3.21,0-5.38,3.6-5.38,9.03s2.17,9.03,5.38,9.03c1.07,0,2.25-.16,3.32-.44v-6.06l-.03-.03Z"/>
</svg>