<?xml version="1.0" encoding="UTF-8"?>
<svg id="Layer_1" data-name="Layer 1" xmlns="http://www.w3.org/2000/svg" viewBox="0 0 103.38 78.81">
  <defs>
    <style>
      .cls-1 {
        fill: #fbcc91;
        stroke-width: 0px;
      }
    </style>
  </defs>
  <g>
    <path class="cls-1" d="M40.59,68.87c2.13.26,5.02.99,6.95,2.49-2.56-1.06-5.01-1.34-7.69-.89-6.45,1.09-11.01,5.9-19.31,7.86-4.08.97-12.14.78-16.67-3.91,4.57,2.83,11.84,3.66,17.35,1.44,7.71-3.11,11.99-7.89,19.37-7Z"/>
    <path class="cls-1" d="M34.77,63.68c-.05-.64-.05-2.58-.05-3.71V12.86c0-.13.08-.24.2-.29l.68-.26c.14-.05.23-.19.23-.34v-2.98c0-.13.08-.24.2-.29l.67-.25c.09-.04.17-.11.21-.2L40.19.08c.04-.09.16-.09.2,0l3.58,8.68c.04.09.1.15.19.19l.5.22c.11.05.18.16.18.28v2.99c0,.15.09.28.23.34l.58.22c.12.05.2.16.2.29v52.51c0,.05.02.1.06.13,1.77,1.66,2.97,3.29,3.38,5.03-1.49-1.63-3.02-2.71-4.76-3.39V13.8c0-.15-.09-.28-.23-.33l-.58-.22c-.12-.05-.2-.16-.2-.3v-2.98c0-.15-.09-.28-.23-.33l-.31-.12c-.1-.04-.18-.12-.21-.22l-2.36-6.69c-.02-.07-.12-.05-.12.02v64.07s-.01,0-.01,0h0c-.56-.11-1.74-.23-2.35-.23-7.58,0-8.37,3.62-17.91,7.67-8.06,3.42-21.65,1.02-19.89-11.29.71-4.97,7.08-9.23,11.53-10.26,5.87-1.36,10.96,1.78,10.96,5.88,0,3.86-5.24,3.95-5.24,3.95.87-.81,1.46-1.95,1.32-3.67-.3-3.55-3.79-5.7-8.03-4.16-3.1,1.13-5.78,5.27-5.08,9.68.71,4.48,4.24,9.14,10.09,9.14,6.23,0,10.75-8.31,19.09-9.72Z"/>
  </g>
  <g>
    <path class="cls-1" d="M68.58,63.7c.05-.64.05-2.58.05-3.71V12.87c0-.13-.08-.24-.2-.29l-.68-.26c-.14-.05-.23-.19-.23-.34v-2.98c0-.13-.08-.24-.2-.29l-.67-.25c-.09-.04-.17-.11-.21-.2L63.16.1c-.04-.09-.16-.09-.2,0l-3.58,8.68c-.04.09-.1.15-.19.19l-.5.22c-.11.05-.18.16-.18.28v2.99c0,.15-.09.28-.23.34l-.58.22c-.12.05-.2.16-.2.29v52.51c0,.05-.02.1-.06.13-1.77,1.66-2.97,3.29-3.38,5.03,1.49-1.63,3.02-2.71,4.76-3.39V13.81c0-.15.09-.28.23-.33l.58-.22c.12-.05.2-.16.2-.3v-2.98c0-.15.09-.28.23-.33l.31-.12c.1-.04.18-.12.21-.22l2.36-6.69c.02-.07.12-.05.12.02v64.07h.01c.56-.12,1.74-.24,2.35-.24,7.58,0,8.37,3.62,17.91,7.67,8.06,3.42,21.65,1.02,19.89-11.29-.71-4.97-7.08-9.23-11.53-10.26-5.87-1.36-10.96,1.78-10.96,5.88,0,3.86,5.24,3.95,5.24,3.95-.87-.81-1.46-1.95-1.32-3.67.3-3.55,3.79-5.7,8.03-4.16,3.1,1.13,5.78,5.27,5.08,9.68-.71,4.48-4.24,9.14-10.09,9.14-6.23,0-10.75-8.31-19.09-9.72Z"/>
    <path class="cls-1" d="M62.78,68.87c-2.13.26-5.02.99-6.95,2.49,2.56-1.06,5.01-1.34,7.69-.89,6.45,1.09,11.01,5.9,19.31,7.86,4.08.97,12.14.78,16.67-3.91-4.57,2.83-11.84,3.66-17.35,1.44-7.71-3.11-11.99-7.89-19.37-7Z"/>
  </g>
</svg>