<?xml version="1.0" encoding="UTF-8"?>
<svg id="Layer_1" data-name="Layer 1" xmlns="http://www.w3.org/2000/svg" viewBox="0 0 210 163.34">
  <defs>
    <style>
      .cls-1 {
        fill: #845823;
      }
    </style>
  </defs>
  <g>
    <path class="cls-1" d="M3.34,158.63c-.74,2.36-1.13,3.93-1.08,3.93v.49H0v-.49h.05s.39-.98.88-2.51l10.51-34.39h1.52l12.77,34.73c.54,1.38.93,2.21,1.03,2.21h.05v.49h-6.83v-.15l-.1-.34h-.1s-.1-.59-.39-1.57l-6.34-18.77h-4.91l-4.76,16.36h.05-.1ZM10.36,134.46l-1.82,6.19h3.93l-2.11-6.19Z"/>
    <path class="cls-1" d="M60.69,163.1c-6.78,0-7.22-.2-11-5.21l-9.09-12.13v13.66c.05,1.92.1,3.19.15,3.19h.05v.49h-6.44v-.49c.1,0,.15-1.28.15-3.19v-29.23c0-1.92-.05-3.19-.15-3.19v-.49h10.91c7.07,0,11.79,3.59,11.79,8.99,0,4.37-3.83,7.61-10.02,8.84l11.2,14.74c2.01,2.65,2.21,2.75,4.27,2.75h.25v1.23l-2.06.05ZM50.62,135.49c0-4.47-2.16-7.42-5.35-7.42h-4.67v15.28h.54c5.7,0,9.48-3.14,9.48-7.86Z"/>
    <path class="cls-1" d="M102.07,159.41c.1,1.92.2,3.19.25,3.19h.05v.49h-6.39v-.49s.1-1.28.05-3.19l-.64-27.12-11.05,31.05h-1.52l2.11-6.29.64-1.92-.64,1.96-2.11,6.24-1.08-2.85-9.73-25.74-.79,23.97c-.05,2.31-.05,3.83.05,3.83h.05v.49h-2.21v-.49h.05s.15-1.28.2-3.19h.05l.98-29.23c.1-1.92.1-3.19,0-3.19v-.49h4.72l10.51,28.64,9.68-28.64h5.65v.49s-.05.59-.05,1.57l1.23,30.85-.05.05Z"/>
    <path class="cls-1" d="M125.18,126.21c10.32,0,15.62,8.55,15.62,18.57s-5.31,18.52-15.62,18.52-15.62-8.55-15.62-18.52,5.31-18.57,15.62-18.57ZM134.07,144.77c0-9.19-3.05-17-8.89-17s-8.89,7.81-8.89,17,3.05,17,8.89,17,8.89-7.81,8.89-17Z"/>
    <path class="cls-1" d="M176.33,163.1c-6.78,0-7.22-.2-11-5.21l-9.09-12.13v13.66c.05,1.92.1,3.19.15,3.19h.05v.49h-6.44v-.49c.1,0,.15-1.28.15-3.19v-29.23c0-1.92-.05-3.19-.15-3.19v-.49h10.91c7.07,0,11.79,3.59,11.79,8.99,0,4.37-3.83,7.61-10.02,8.84l11.2,14.74c2.01,2.65,2.21,2.75,4.27,2.75h.25v1.23l-2.06.05ZM166.26,135.49c0-4.47-2.16-7.42-5.35-7.42h-4.67v15.28h.54c5.7,0,9.48-3.14,9.48-7.86Z"/>
    <path class="cls-1" d="M207.84,126.94s0-.1.05-.25v-.25h2.11s-.05.15-.05.25c-.05.15-.1.25-.1.25-.05,0-.59.84-1.38,2.21l-8.6,15.47v14.74c0,1.92.05,3.19.15,3.19v.49h-6.44v-.49h.05s.1-1.28.1-3.19v-12.53l-8.3-16.7c-.93-1.92-1.62-3.19-1.67-3.19,0,0-.05-.1-.05-.25-.05-.05-.05-.1-.05-.15l-.05-.1h7.52v.25c.05.15.05.25.05.25,0,0,.05.1.15.25l7.76,15.87,6.48-11.94c1.38-2.51,2.26-4.18,2.26-4.18Z"/>
  </g>
  <g>
    <path class="cls-1" d="M104.07,50.07c.06,0,.11-.03.15-.07.04-.05.06-.12.04-.19-.32-1.02-.64-2.03-.98-3.05-.02-.07-.08-.11-.14-.13-1.3-.32-2.59-.61-3.88-.89-.01,0-.03,0-.04,0-.06,0-.11.02-.15.07-.05.05-.06.13-.04.2.4,1.16.78,2.32,1.14,3.47.02.08.09.13.17.14,1.24.14,2.47.3,3.7.46,0,0,.02,0,.03,0Z"/>
    <path class="cls-1" d="M98.02,50.17c-1.3-.13-2.5-.22-3.65-.28,0,0,0,0-.01,0-.06,0-.12.03-.16.08-.04.05-.05.12-.03.18.67,2.15,1.28,4.28,1.82,6.33.02.09.1.15.19.15.01,0,.02,0,.04,0,1.14-.21,2.28-.4,3.39-.59.06,0,.1-.04.14-.09.03-.05.04-.11.02-.16-.48-1.8-1.01-3.64-1.57-5.47-.02-.08-.09-.13-.17-.14Z"/>
    <path class="cls-1" d="M110.57,50.93c.06,0,.12-.03.15-.07.04-.05.06-.12.04-.19l-.29-.91c-.17-.55-.35-1.1-.53-1.65-.02-.06-.07-.11-.14-.13-1.31-.37-2.62-.71-3.92-1.04-.02,0-.03,0-.05,0-.06,0-.11.02-.15.06-.05.05-.07.13-.04.2.22.66.44,1.32.65,1.98l.35,1.09c.02.07.09.15.17.16,1.29.18,2.51.34,3.72.5,0,0,.02,0,.03,0Z"/>
    <path class="cls-1" d="M97.62,49.32c.06,0,.12-.03.16-.07.04-.05.06-.12.04-.19-.36-1.16-.74-2.31-1.12-3.46-.02-.07-.08-.12-.15-.13-1.29-.27-2.56-.51-3.83-.73-.01,0-.02,0-.03,0-.06,0-.11.03-.15.07-.05.05-.06.13-.04.2.45,1.31.88,2.62,1.3,3.92.03.08.1.13.18.14,1.15.06,2.37.15,3.64.26,0,0,.01,0,.02,0Z"/>
    <path class="cls-1" d="M104.49,50.93c-1.23-.16-2.47-.32-3.71-.47,0,0-.02,0-.02,0-.06,0-.12.03-.15.07-.04.05-.06.12-.04.19.52,1.68,1.01,3.36,1.46,4.99.02.09.1.15.19.15.01,0,.02,0,.03,0,1.16-.18,2.29-.35,3.41-.5.06,0,.11-.04.14-.09.03-.05.04-.11.03-.16-.37-1.34-.76-2.69-1.17-4.03-.02-.07-.09-.13-.17-.14Z"/>
    <path class="cls-1" d="M134.57,49.56c.14.06.29.09.45.09.62-.04,1.13-.43,1.36-1,.15-.36.17-.74.07-1.09-.11-.39-.37-.69-.72-.84-.14-.06-.29-.09-.45-.09-.57,0-1.12.4-1.37,1-.15.36-.17.74-.07,1.09.11.39.37.7.72.84ZM135.02,48c.11-.28.32-.44.47-.45.13.04.17.15.18.18.04.21.03.37-.04.5-.13.31-.35.46-.49.46,0,0-.03,0-.05,0-.07-.03-.11-.14-.12-.17-.04-.15-.03-.34.05-.51Z"/>
    <path class="cls-1" d="M110.98,51.8c-1.21-.15-2.45-.32-3.71-.49,0,0-.02,0-.03,0-.06,0-.11.03-.15.07-.04.05-.06.12-.04.19l.5,1.64c.07.24.52,1.78.52,1.78.03.09.14.24.23.24,0,0,0,0,.01,0,1.17-.15,2.32-.28,3.44-.39.06,0,.11-.04.15-.09.03-.05.04-.11.03-.17-.09-.33-.75-2.55-.75-2.55-.02-.07-.12-.22-.19-.23Z"/>
    <path class="cls-1" d="M85.32,49.18s.04-.11.02-.17c-.52-1.7-1.08-3.42-1.65-5.1-.02-.07-.09-.12-.16-.13-1.25-.16-2.49-.29-3.72-.41,0,0-.01,0-.02,0-.06,0-.12.03-.16.08-.04.05-.05.12-.03.19.69,2,1.35,4.03,1.97,6.04.03.08.1.14.19.14.01,0,.03,0,.04,0,1.07-.23,2.21-.41,3.38-.54.06,0,.11-.04.14-.09Z"/>
    <path class="cls-1" d="M85.5,50.04s-.01,0-.02,0c-1.17.13-2.32.31-3.42.53-.05.01-.1.05-.13.09s-.04.11-.02.16c.75,2.51,1.42,4.99,1.99,7.38.02.09.1.15.19.15.01,0,.03,0,.04,0,1.14-.24,2.27-.47,3.39-.69.05-.01.1-.04.13-.09.03-.05.04-.1.02-.16-.6-2.38-1.27-4.81-1.99-7.24-.03-.08-.1-.14-.19-.14Z"/>
    <path class="cls-1" d="M91.66,49.78c-.34,0-.68,0-1.02,0-.85,0-1.7.02-2.54.06-.06,0-.12.04-.15.08-.04.05-.05.12-.03.17.76,2.47,1.44,4.9,2.03,7.21.02.09.1.15.19.15.01,0,.03,0,.04,0,1.14-.22,2.27-.44,3.38-.65.05,0,.1-.04.13-.09s.04-.1.02-.16c-.57-2.18-1.2-4.41-1.87-6.64-.03-.08-.1-.14-.19-.14Z"/>
    <path class="cls-1" d="M91.28,48.97c.06,0,.12-.03.16-.08.04-.05.05-.12.03-.18-.42-1.36-.86-2.71-1.32-4.07-.02-.07-.08-.12-.16-.13-1.27-.21-2.53-.4-3.78-.57,0,0-.02,0-.03,0-.06,0-.12.03-.15.07-.04.05-.06.13-.03.19.54,1.56,1.06,3.14,1.55,4.7.03.08.1.14.19.14,0,0,0,0,.01,0,.93-.05,1.89-.08,2.86-.08,0,0,.66,0,.66,0Z"/>
    <path class="cls-1" d="M186.26,25.49c2.09-4.05,1.41-7.6-1.89-10.02-.03-.08-.06-.16-.1-.24-4.59-9.42-12.68-14.19-24.06-14.19-1.47,0-3.01.08-4.63.24-.16-.41-.45-.76-.86-1-.31-.18-.66-.27-1.01-.27-.27,0-.54.06-.79.16-.53,0-1.06.22-1.45.63-1.55,1.65-2.02,1.65-2.53,1.65h-.87c-.3-.01-.62,0-.98.03-.3.03-.62.05-.95.08l-.22.02c-2.67.21-6.32.49-11.38,2.17-4.57,1.52-18.47,7.66-24.23,10.22-.43.19-.75.52-.96.91,0,0,0-.01,0-.02-.19-.58-.63-1.05-1.21-1.27-1.3-.49-2.64-.72-4.1-.72-.73,0-1.5.06-2.31.19-.06,0-.12.01-.18.02l-.14.02c-.32.05-.65.11-.98.18l-.14.04c-.38.05-.74.21-1.03.47l-5.33,4.59c-.4.34-.63.81-.68,1.31-.12.07-.24.14-.34.23l-11.53,9.75c-.22.19-.39.41-.51.66-.27.08-.52.21-.74.39l-.82.69c-.54.46-.77,1.16-.66,1.85-.18-.02-.35-.05-.53-.08-.07,0-.15-.02-.22-.02-.03,0-.05,0-.08-.01-1.12-.15-2.25-.29-3.37-.42-.07,0-.15-.01-.22-.01-.03,0-.05,0-.08,0l-.26-.03c-.08,0-.15-.01-.23-.01-.6,0-1.18.27-1.56.75-.43.54-.55,1.26-.32,1.91l.79,2.23c.22.62.72,1.08,1.33,1.26,4.46,11.79,7.09,22.59,8.04,32.99-.05.05-.1.1-.14.15-.35.4-.52.93-.48,1.46v.04c.09,1.04,1.01,1.84,2.05,1.84h.04c1.15-.02,2.38-.18,3.61-.46.87-.17,1.86-.42,2.91-.72-.23,1.27-.77,2.53-1.68,3.85-.13.19-.22.4-.28.62-.06.05-.12.1-.17.16l-2.16,2.43c-1.67,1.88-3.32,3.74-4.89,5.46-3.31,3.62-5.58,5.86-7.15,7.04-.43.32-.71.81-.78,1.34-.16,1.2-.05,2.55.33,4.13.35,1.47.91,3.09,1.81,5.25.28.68.92,1.12,1.64,1.2.36.39.86.64,1.41.65.62.02,1.22.03,1.82.03h.27c10.43,0,19.53-2.23,28.66-7.02.7-.37,1.39-.74,2.06-1.12,2.79-1.57,5.24-3.16,7.61-4.7,3.68-2.39,6.85-4.45,9.86-5.46.19-.06.35-.16.51-.27.03,0,.06.01.09.01.11,0,.23,0,.34-.03.07-.01.13-.02.21-.02,1.33,0,3.65,1.56,5.35,2.71,1.92,1.29,3.58,2.41,5.09,2.54.06,0,.12,0,.18,0,.75,0,1.44-.42,1.78-1.09.37-.73.26-1.61-.28-2.22-2.01-2.31-3.77-4.69-5.22-7.07-2.19-3.61-3.75-7.37-4.65-11.19-.04-.17-.11-.32-.18-.47.02-.22.02-.45-.03-.67-.13-.54-.16-1.09-.14-1.64.76-.11,1.41-.62,1.64-1.37l.87-2.84c.11-.36.1-.74,0-1.1,1.68-1.96,3.24-4.15,4.51-6.44.23-.41.3-.87.23-1.31,1.56-3.42,2.56-7.02,2.91-10.47.03-.26,0-.52-.07-.76.1-.23.17-.48.18-.74,0-.17.01-.34.02-.51.64-.34,1.07-1.01,1.07-1.78,0-3.28-.64-6.45-1.87-9.41-.03-.07-.06-.13-.09-.2-2.19-3.96-4.6-6.93-7.27-8.94.45-.75.37-1.72-.24-2.38-2.8-3.04-6.05-5.02-9.68-5.96,1.55-.24,3.12-.39,4.64-.39,2.78,0,5.07.49,6.8,1.45.31.17.64.25.97.25.59,0,1.17-.26,1.57-.75.58-.73.58-1.77,0-2.49.13-.1.25-.21.35-.34.03-.04.06-.08.09-.12.34.23.73.35,1.13.35.36,0,.71-.09,1.03-.29.36.3.81.46,1.28.46.26,0,.52-.05.76-.15.59-.24,1-.74,1.16-1.31.04.03.08.06.11.1.38.34.85.51,1.33.51h.03c.32.2.69.31,1.07.31.25,0,.51-.05.75-.15.21.07.43.11.66.11.09,0,.17,0,.26-.02.13-.02.25-.05.37-.09.21.34.52.6.88.76-.33.94.09,1.99.98,2.44.29.15.6.22.91.22.19,0,.38-.03.56-.08.17.38.45.71.83.93-.52.6-.64,1.47-.28,2.19,0,0,0,.01,0,.02-.09.2-.17.41-.22.63-.04.15-.06.3-.06.46,0,.2,0,.4,0,.61.02.41.16.8.4,1.11-.08.49-.05,1.01.1,1.54.02.06.04.12.06.18.48,1.27,1.16,2.02,1.85,2.47-.69,1.51-1.01,3.17-.94,4.87.02.47.2.9.49,1.23-.02.45-.01.94.02,1.54.75,6.99,4.97,8.46,8.37,8.46.11,0,.22,0,.33,0,.14.03.29.05.43.05h0c.2.23.46.41.75.53,2.07.83,4.08,1.25,5.97,1.25,4.79,0,8.8-2.51,12.27-7.72.03-.05.07-.11.1-.16.27-.03.53-.11.78-.25,2.62-1.47,5.27-4.42,3.41-10.21.12-.13.23-.28.31-.44ZM100.58,16.33c.06,0,.2-.04.33-.08.27-.07.56-.11.83-.15l.15-.03s.04,0,.05,0c.73-.12,1.44-.18,2.11-.18,1.22,0,2.33.19,3.4.59.2.62.46,1.24.77,1.83,0,0,.05.1.06.11,1.64,3.04,4.77,5.54,9.56,7.62-1.59.8-2.7,1.47-3.49,2.08-4.87-1.16-8.33-3.77-10.29-7.76.65-.99,1.81-2.19,2.99-3.34.08-.08.08-.2,0-.28-.04-.04-.09-.07-.15-.07-.05,0-.09.02-.13.05-1.51,1.27-2.67,2.33-3.4,3.28h-.4c-2.64,0-4.84.21-6.71.64-.21.05-.45.12-.71.19-.1.03-.2.06-.3.08l5.33-4.59ZM81.43,33.27c2.58.42,5.27.8,7.87,1.17,7.9,1.12,15.36,2.19,18.15,4.02.03.02.07.03.11.03.05,0,.11-.02.15-.07.07-.07.07-.18,0-.26-1.67-2.06-9.66-3.38-18.12-4.78-2.3-.38-4.67-.77-6.9-1.18l11.53-9.75c2.03-.81,4.5-1.16,8.47-1.16h.35c2.18,4.22,5.76,6.98,10.66,8.18,3.02,7.03,7.51,11.78,13.36,14.11.02,0,.05.01.07.01.07,0,.14-.04.18-.11.05-.09.02-.2-.06-.26-5.67-3.82-9.82-8.72-12.32-14.57.69-.6,1.69-1.33,3.2-2.33.02-.01.03-.03.05-.04,1.09,4.46,2.9,8.21,5.36,11.17,2.2,2.64,5.01,4.72,8.36,6.21-.6.06-1.31.14-2.11.22-3.35.36-7.89.85-10.6.85h0c-.91,0-1.55-.06-1.9-.17l-.3-.09c-2.52-.78-5.65-1.75-9.19-2.78-.04-.51-.4-1.29-1.72-2.3-2.37-1.83-20.19-4.76-25.44-5.45l.82-.69ZM86.66,73.92c-1.16.26-2.26.4-3.27.42h-.06s0-.04,0-.04l.55-.04s.07-.02.1-.04c9.07-1.74,13.28-4.27,16.66-6.3,3.41-2.05,6.11-3.67,12.36-3.86.21,0,.39-.12.49-.3.24-.45.48-.9.72-1.35,2.88-5.44,5.35-10.1,13.22-13.14.1-.04.15-.15.12-.25-.03-.08-.11-.13-.19-.13-.02,0-.04,0-.06.01-9.24,3.14-11.84,8.67-14.35,14.02l-.13.27c-6.2.24-8.13,1.24-11.55,3.3-4.1,2.46-9.03,4.96-17.29,6.58-.94-10.71-3.63-21.83-8.22-33.96,22.08,2.67,30.61,5.43,36.27,7.26,3.13,1.15,6.7,1.86,9.32,1.86,1.64,0,2.89-.26,3.72-.79.09-.06.12-.17.07-.26-.04-.07-.1-.11-.18-.11-.03,0-.05,0-.08.02-.37.17-1.15.26-2.17.26s-2.17-.09-3.24-.23c-2.45-.34-4.49-1-7.08-1.84-5.62-1.82-14.11-4.57-35.79-7.23-.52-.05-.98-.09-1.41-.1h-.32s-.4,0-.4,0l-.79-2.23s.48.05.49.05c.03,0,.05,0,.08-.01,1.11.12,2.21.26,3.32.41.02.02.1.04.19.04.01,0,.09,0,.11,0,15.7,2.17,31.11,6.84,38.89,9.44l.18.06c.46.14,1.2.21,2.28.21,2.78,0,7.15-.47,10.65-.85,2.26-.25,4.04-.39,4.55-.41-.01,0,.04.02.1.02s.12-.01.18-.03c.75.02,1.48.32,1.98.86.54.57.81,1.38.77,2.32-.08,1.89-1.3,2.91-2.41,2.91,0,0-.28,0-.37,0-.53,0-1.05-.08-1.64-.16-.71-.1-1.51-.22-2.48-.22h-.12c-3.72.04-7.77,1.98-11.1,5.33-2.87,2.89-4.79,6.38-5.16,9.38-.34-.02-.8-.04-1.37-.04-2.57,0-7.52.42-11.76,3.2-3.89,2.55-10.49,4.96-14.37,5.72ZM126.28,60.56l-.18.38c-.45.96-.96,2.05-1.38,3.42-3.25.6-6.47,1.62-9.31,2.52-1.87.59-3.64,1.15-5.11,1.49-.01,0-.14.06-.16.07-4.26,3.09-7.7,5.07-10.83,6.23h-.18s-.39.06-.4.06c-.99.11-1.9.17-2.68.17-1.78,0-3.08-.29-3.97-.87,0-.14,0-.28,0-.42,3.53-1.12,6.84-2.65,9.58-4.45,3.98-2.61,8.74-3,11.23-3,1.08,0,1.72.07,1.73.07,0,0,.02,0,.02,0,.19,0,.31-.05.42-.13.12-.1.19-.25.2-.41.3-5.5,6.3-12.14,12.4-13.8.5,4.61-.37,6.49-1.38,8.67ZM91.97,75.29c1.02.51,2.35.76,4.04.76.85,0,1.78-.06,2.86-.18,6.46-.65,12.18-2.42,17.23-3.98,2.81-.87,5.46-1.68,8-2.25-.27,1.01-.4,2.16-.4,3.42-1.73.55-3.69,1.24-5.59,1.91-7.49,2.65-16.81,5.94-26.04,6.19h-.48s-1.66-1.01-1.66-1.01c1.12-1.63,1.79-3.22,2.04-4.85ZM76.83,104.69c-.86-2.05-1.39-3.59-1.71-4.94-.32-1.34-.41-2.46-.29-3.41,1.69-1.28,3.99-3.53,7.42-7.29,1.6-1.75,3.28-3.65,4.98-5.55l2.1-2.36,1.11.68c-1.71,2.32-3.29,4.57-4.7,6.68-2.62,3.92-4.75,7.5-6.49,10.94-.91,1.8-1.72,3.57-2.41,5.26ZM117.36,92.81c-2.34,1.52-4.76,3.09-7.5,4.64-.65.37-1.32.73-2.01,1.09-8.83,4.64-17.64,6.8-27.73,6.8,0,0-.26,0-.26,0-.58,0-1.18,0-1.77-.03.79-1.84,1.7-3.79,2.72-5.78,1.84-3.61,4.04-7.38,6.36-10.92,1.45-2.22,2.94-4.33,4.43-6.29,9.57-.14,19.18-3.53,26.9-6.26,1.82-.64,3.71-1.31,5.38-1.84l3.79,12.92c-3.25,1.09-6.53,3.22-10.32,5.68ZM129.55,71.73c-1.22.07-2.77.4-4.84,1.02.02-1.26.2-2.39.51-3.35,1.5-.3,2.87-.47,4.16-.54-.11.96-.05,1.93.17,2.87ZM134.65,84.64c1.51,2.48,3.33,4.96,5.42,7.35-1-.09-2.54-1.12-4.16-2.21-2.12-1.43-4.52-3.04-6.46-3.04-.19,0-.37.02-.55.05l-3.96-12.9c2.12-.64,3.66-.96,4.82-1.01.94,4.02,2.59,7.98,4.89,11.77ZM131.08,67.68c-.15,0-.3,0-.45,0-.19,0-.38,0-.57,0-4.59.12-9.3,1.57-14.29,3.11-3.97,1.22-8.42,2.6-13.29,3.43,2.42-1.19,5.09-2.86,8.12-5.06,1.42-.31,3.19-.87,5.06-1.46,4.2-1.33,9.42-2.98,14.11-2.98.76,0,1.49.04,2.18.13l-.87,2.84ZM136.41,56.55c-.05.1-.04.27.05.32.05.03.1.05.14.05.01,0,.03,0,.04,0-1.48,2.64-3.22,5.01-5.02,6.96-.02.02-.04.04-.05.07-.57-.05-1.18-.08-1.79-.08-1.26,0-2.58.11-4.04.33.43-1.27.9-2.3,1.32-3.21,1.16-2.52,2.09-4.51,1.44-9.28.65-.13,1.3-.2,1.92-.2h.11c.88,0,1.6.11,2.3.21.63.09,1.2.18,1.82.18.11,0,.21,0,.32,0,.8-.05,1.63-.46,2.26-1.19-1.62,4.21-4.18,7.59-4.23,7.65-.07.08-.06.21.03.28.04.03.08.05.13.05.06,0,.11-.02.15-.07.1-.11,2.36-2.77,4.16-6.38,1.12-2.24,1.8-4.36,2.05-6.31-.35,3.45-1.39,7.1-3.12,10.64ZM139,33.67c1.19,2.86,1.71,5.78,1.72,8.64-.08-3.6-1.03-6.83-2.75-9.4-2.24-3.33-5.82-5.24-9.84-5.24-1.08,0-2.18.14-3.28.41-.1.03-.17.13-.15.23.02.1.1.16.2.16,0,0,.02,0,.03,0,.68-.1,1.37-.15,2.04-.15,4.15,0,7.81,1.9,10.04,5.22,1.95,2.9,2.82,6.75,2.62,10.95.03-1.74-.32-3.32-1.05-4.7-1.99-3.54-5.04-4.74-7.25-5.12-.7-.12-1.42-.18-2.15-.18-1.28,0-2.16.19-2.19.2-.11.02-.18.13-.15.24.02.09.1.16.19.16.01,0,.03,0,.04,0,.03,0,.32-.03.8-.03,2.02,0,7.01.52,9.7,5.3,1.09,2.06,1.16,4.44.71,6.79-.2-2.01-1.65-3.47-3.72-3.65-8.19-2.79-13.23-8.64-15.38-17.88-.04-.18-.17-.33-.34-.4-4.1-1.71-6.96-3.69-8.71-6.04,2.03-.62,4.11-.93,6.18-.93,4.81,0,9.71,1.7,14.01,4.83-1.81-.83-3.71-1.25-5.68-1.25-1.8,0-3.64.35-5.47,1.04-.1.04-.15.15-.12.25.03.08.11.14.19.14.02,0,.03,0,.05,0,1.74-.44,3.3-.65,4.78-.65,5.94,0,10.82,3.62,14.93,11.08ZM131.77,22.74c-1.14-.9-2.34-1.7-3.59-2.41-3.45-1.95-7.05-2.94-10.68-2.94-2.51,0-5.08.48-7.63,1.41-.09-.13-.18-.27-.26-.41,3.17-1.09,6.16-1.64,8.87-1.64,5.23,0,9.6,1.96,13.3,5.98ZM178.11,17.25c.9.1,1.81.45,2.63.99.05.04.11.07.16.11-.44-.1-.89-.14-1.34-.14s-.93.05-1.38.16c-.11.02-.17.13-.15.24.02.09.1.16.2.16.01,0,.03,0,.04,0,.35-.07.71-.1,1.07-.1.9,0,1.79.21,2.58.61.56.67.91,1.48.96,2.32.12,1.29.41,2.63.92,4.23,0,.03,0,.05,0,.07,1.5,4.03.77,6.82-2.25,8.51.37-1.25.38-2.48.04-3.57-.17-.58-.43-1.17-.8-1.79-.04-.06-.1-.1-.17-.1-.03,0-.06,0-.09.02-.09.05-.13.16-.09.26.29.62.48,1.19.58,1.74.3,1.4-.06,2.91-1.07,4.51-3.04,4.56-6.5,6.78-10.58,6.78-1.64,0-3.39-.37-5.23-1.11,1.42-.59,2.48-1.64,3.09-3.05,1.37-3.22.58-6.89-.13-9.37-.22-.72-.48-1.47-.77-2.21-.03-.08-.11-.13-.19-.13-.02,0-.05,0-.07.01-.1.04-.15.15-.12.25.26.75.49,1.49.67,2.21.59,2.4,1.21,5.93-.18,8.87-.71,1.5-2.06,2.47-3.8,2.74-.06-.03-.15-.06-.17-.06,0,0,0,0,0,0-.2.01-.4.02-.59.02-3.82,0-5.9-2.18-6.38-6.67-.04-.68-.03-1.21.02-1.7.09-1.09.67-2.07,1.26-2.97.06-.09.04-.21-.05-.27-.04-.03-.08-.04-.12-.04-.06,0-.12.03-.15.07-.53.65-1.11,1.4-1.46,2.27-.06-1.41.19-3.2,1.32-4.98.49-.69,1-1.36,1.51-1.98.69-.83,1.45-1.69,2.35-2.33.09-.06.11-.18.05-.27-.04-.06-.1-.09-.17-.09-.03,0-.07,0-.1.02-1.03.56-1.9,1.37-2.71,2.14-.44.43-.86.87-1.28,1.31-1.12-.04-1.71-1-2.01-1.8-.13-.45-.08-.86.15-1.18.25-.34.64-.64,1.01-.92l.32-.25c.63-.48,1.36-1.06,2-1.71.69-.7,1.2-1.44,1.52-2.2.04-.1,0-.21-.1-.26-.03-.01-.06-.02-.09-.02-.07,0-.14.04-.17.1-.84,1.48-2.31,2.41-3.72,3.31-.14.1-.28.19-.43.28-.32.2-.64.4-.92.66,0-.16-.01-.33,0-.48.15-.58.63-1.11,1.47-1.56l.46-.26c.83-.46,1.7-.93,2.23-1.75.06-.09.04-.21-.05-.27-.04-.03-.08-.04-.12-.04-.06,0-.11.02-.15.07-.56.66-1.39,1-2.2,1.34-.46.19-.92.39-1.34.64,0-.06-.03-.11-.08-.15-.04-.03-.08-.04-.12-.04-.01,0-.03,0-.04,0,.4-.38.85-.76,1.36-1.14.15-.11.31-.22.46-.33.27-.19.54-.38.81-.54.66-.4,1.33-.7,2-.9.27-.07.56-.14.85-.21,1.3-.31,2.65-.64,3.74-1.5,1.01-.78,1.2-2.06,1.23-2.75,0-.11-.08-.2-.19-.21,0,0-.01,0-.02,0-.1,0-.19.08-.2.18-.08.75-.26,1.29-.55,1.71-.86,1.21-2.61,1.54-4.15,1.83-.32.06-.63.12-.93.18-.6.15-1.19.37-1.77.64.95-1.51,1.78-3.04,1.79-3.05.03-.05.03-.12,0-.17-.02-.06-.07-.1-.13-.12-.02,0-.08-.01-.1-.01-.26,0-.81.19-1.9,1.22.41-1.03.48-2.01.49-2.49,0-.11-.08-.2-.19-.2h-.01c-.1,0-.19.08-.2.18-.08.94-1.42,2.67-2.49,4.06-.15.2-.3.39-.44.57.12-.4.26-.83.42-1.27.57-1.66,1.21-3.55.67-4.76-.03-.07-.1-.12-.18-.12-.02,0-.03,0-.05,0-.09.02-.16.11-.15.2.06,1.48-.28,2.72-1.03,3.77.22-1.42-.26-3.09-.84-4.71-.03-.08-.11-.13-.19-.13-.02,0-.03,0-.05,0-.1.02-.17.12-.15.22,0,.04.44,3.79-.84,5.67,1.43-3.99-1.5-6.5-1.53-6.53-.04-.03-.08-.05-.13-.05-.06,0-.11.02-.15.07-.07.08-.06.21.02.28.06.05,1.32,1.19.71,3.74-.46-2.49-2.2-3.87-2.28-3.94-.04-.03-.08-.04-.12-.04s-.08.01-.12.04c-.07.05-.1.15-.07.23,0,.01.37,1.06.27,2.88-.8-2.44-3.09-2.8-3.11-2.8,0,0-.02,0-.03,0-.09,0-.16.06-.19.14-.03.09.01.2.1.24.06.03,1.34.69,1.82,2.46-.54-.75-1.19-1.41-1.82-2.01-.04-.04-.09-.06-.14-.06s-.1.02-.14.06c-.08.08-.08.2,0,.28.4.43.74.91,1,1.42-1.75-1.56-4.21-1.6-4.33-1.6h0c-.08,0-.16.05-.19.13-.03.08,0,.17.06.22.59.5.91,1.35,1.1,2.12-1.29-2.1-3.82-2.29-3.85-2.29,0,0,0,0-.01,0-.09,0-.17.06-.19.16-.02.1.03.19.12.23.05.02,1.07.45,1.62,1.73-1.21-1.17-2.94-1.37-3.96-1.37-.61,0-1.01.07-1.03.07-.09.01-.15.08-.17.17s.04.17.12.21c.02,0,1.29.58,2.27,1.44-2.08-1.55-3.59-1.57-3.67-1.57-.1,0-.19.08-.2.18,0,.1.06.2.16.21.02,0,1.43.28,2.75,1.61-1.66-1.23-3.09-1.52-4.08-1.52s-1.51.27-1.53.28c-.07.03-.12.11-.11.19,0,.08.05.15.13.18.25.1.56.1.95.11.97,0,2.5.02,4.52,1.85-.3-.14-.6-.28-.9-.41-.03-.01-.06-.02-.09-.02-.08,0-.16.04-.19.11-.05.1-.02.21.07.26.4.2.79.45,1.16.76.25.2.48.42.68.64-2.03-1.13-4.65-1.7-7.78-1.7-6.1,0-12.85,2.18-16.33,3.48-.26.1-.51.19-.74.28,5.62-2.5,19.54-8.65,24.05-10.15,4.82-1.61,8.33-1.88,10.9-2.08.43-.03.83-.06,1.2-.1.29-.03.55-.03.79-.03h.84c1.11.01,2.05-.17,4.02-2.28-.17.25-.35.49-.55.73-.07.08-.06.21.02.28.04.03.09.05.13.05.05,0,.11-.02.15-.06.33-.34.69-.74,1.03-1.16-.35.91-.98,1.25-1.01,1.26-.09.04-.13.15-.1.24.03.08.1.14.19.14.01,0,.02,0,.03,0,2.61-.41,5.09-.61,7.38-.61,10.55,0,18.04,4.4,22.26,13.07-.49-.2-.98-.38-1.46-.54-.02,0-.04-.01-.06-.01-.08,0-.16.05-.19.13-.04.1.01.21.11.25.63.25,1.28.54,1.94.87.02.02.03.04.05.05,2.8,1.88,3.33,4.41,1.62,7.73-.04-.1-.08-.21-.12-.31-.33-.93-.56-1.86-.69-2.77-.07-.54-.24-1.06-.48-1.52-.46-.87-1.21-1.63-2.17-2.19-.94-.54-1.93-.87-2.88-.93,0,0,0,0-.01,0-.1,0-.19.08-.2.18,0,.11.07.21.18.22Z"/>
    <path class="cls-1" d="M127.51,65.23c-.11-.06-.22-.09-.34-.09-.4,0-.75.34-.9.87-.08.29-.1.62-.03.9.07.33.25.6.48.73.11.06.22.09.34.09.42-.03.75-.36.9-.87.08-.3.1-.62.03-.9-.07-.33-.25-.6-.48-.73ZM127.33,66.53c-.06.22-.16.32-.21.34-.01-.02-.03-.06-.05-.12-.03-.13-.02-.29.02-.44.07-.23.18-.32.21-.32,0,0,.02.04.04.12.03.18.02.32-.02.42Z"/>
    <path class="cls-1" d="M124.97,65.4c-.13-.07-.27-.1-.41-.1-.49,0-.95.41-1.15,1.03-.11.36-.13.74-.05,1.09.1.4.32.71.61.87.13.07.27.1.41.1.53-.03.95-.43,1.14-1.03.11-.36.13-.74.05-1.09-.1-.4-.32-.71-.61-.87ZM124.83,66.97c-.11.34-.29.46-.36.46,0,0,0,0-.01,0-.03-.02-.07-.08-.1-.18-.04-.16-.03-.37.03-.56.09-.29.26-.43.35-.44.05.02.09.08.11.19.04.23.03.41-.03.54Z"/>
  </g>
</svg>