<?xml version="1.0" encoding="UTF-8"?>
<svg id="Layer_1" data-name="Layer 1" xmlns="http://www.w3.org/2000/svg" viewBox="0 0 51.04 58.91">
  <defs>
    <style>
      .cls-1 {
        fill: #fbcc8f;
      }
    </style>
  </defs>
  <path class="cls-1" d="M31.38,27.09s-.08-.06-.12-.1c.97-.5.86-2.35-.29-2.51.32-.51.96-1.55,1.57-2.7,1.6-3.04,1.46-4.02,1.15-4.53-.68-1.16-2.19-.86-3.4-.62-.49.1-1.17.23-1.37.14-.12-.05-.17-.14-.3-.46-.22-.53-.58-1.43-2.23-1.43s-2.72,1.18-3.54,2.04c-.32.34-.65.68-.84.77-.1.02-.43-.19-.63-.31-.67-.41-1.8-1.11-3.07-.07-1.15.95-.42,3.01,2.25,6.32.24.29.48.58.74.85-1.28.19-1.51,1.66-.69,2.32-.76.51-2.25,1.59-3.76,3.24-2.81,3.08-4.29,6.67-4.29,10.38,0,1.88.61,3.43,1.81,4.6,2.93,2.86,8.54,2.75,11.55,2.68.35,0,.67-.01.92-.01.27,0,.6,0,.94.02.42.01.89.02,1.39.02,2.36,0,5.44-.27,7.39-2.17,1.27-1.24,1.91-3,1.91-5.25,0-6.76-5.44-11.83-7.1-13.22ZM19.06,18.24c.58-.48.98-.27,1.68.16.49.3,1.1.68,1.75.38.41-.19.79-.58,1.22-1.04.74-.78,1.58-1.67,2.67-1.67.85,0,.94.23,1.12.68.04.09.08.19.13.3.11.27.21.55.3.83.36,1.16.68,2.35.72,3.57.23-1.15.26-2.32.19-3.48.48.07,1.05-.05,1.69-.17.84-.17,1.88-.37,2.13.05,0,0,.28.6-1.19,3.39-.76,1.44-1.61,2.76-1.7,2.89l-.24.34h-6.55c-.53-.5-1.03-1.03-1.48-1.59-2.34-2.9-2.73-4.39-2.43-4.64ZM35.73,44.7c-2.01,1.96-5.57,1.87-7.92,1.81-.35,0-.68-.02-.97-.02-.27,0-.58,0-.95.01-2.64.06-8.12.17-10.68-2.34-.97-.95-1.45-2.18-1.45-3.74,0-8.24,7.89-12.86,7.97-12.91l.68-.41h1.1c-1.01,1.21-2,2.74-1.85,4.05.13-1.58,2.01-3.11,3.33-4.05h1.76c.28.31.56.65.81.98.91,1.22,1.68,2.59,1.99,4.1-.03-1.79-.64-3.51-1.49-5.08h1.03l.54.27h0c.34.17.67.39.96.63,1.57,1.31,6.67,6.06,6.67,12.3,0,1.91-.52,3.39-1.55,4.39Z"/>
</svg>