<?xml version="1.0" encoding="UTF-8"?>
<svg id="Layer_1" data-name="Layer 1" xmlns="http://www.w3.org/2000/svg" viewBox="0 0 51.04 58.91">
  <defs>
    <style>
      .cls-1 {
        fill: #fbcc8f;
      }
    </style>
  </defs>
  <path class="cls-1" d="M36.64,26.45c-.4-.39-.85-.68-1.34-.87v-.21c0-3.23-1.05-5.96-3.05-7.9-1.78-1.73-4.18-2.69-6.74-2.69s-4.96.95-6.74,2.69c-1.99,1.94-3.05,4.67-3.05,7.9v.21c-.48.19-.93.48-1.34.87-2.23,2.15-2.61,6.51-2.25,9.59.43,3.75,1.83,6.69,4.14,8.73,2.31,2.04,5.42,3.07,9.23,3.07s6.92-1.03,9.23-3.07c2.32-2.04,3.71-4.98,4.14-8.73.36-3.08-.02-7.45-2.25-9.59ZM25.52,17.18c3.56,0,7.38,2.56,7.38,8.19v.05c-1.59.32-2.43,1.13-3.19,1.84-.97.92-1.81,1.71-4.2,1.71s-3.23-.79-4.2-1.71c-.75-.71-1.6-1.52-3.19-1.84v-.05c0-5.63,3.83-8.19,7.38-8.19ZM37.7,35.9c-.8,6.92-5.12,10.73-12.18,10.73s-11.38-3.81-12.18-10.73c-.42-3.64.34-7.1,1.89-8.59.56-.54,1.18-.8,1.91-.8.16,0,.33.01.5.04,1.42.22,2.09.85,2.86,1.58,1.01.96,2.16,2.04,5.02,2.04s4.01-1.09,5.02-2.04c.77-.73,1.44-1.36,2.86-1.58.94-.14,1.73.1,2.41.76,1.55,1.49,2.31,4.95,1.89,8.59Z"/>
  <path class="cls-1" d="M25.52,33.57c-1.41,0-2.55,1.14-2.55,2.55,0,1.06.65,1.97,1.57,2.35-.03.07-.04.15-.04.23v3.46c0,.39.32.71.71.71h.63c.39,0,.71-.32.71-.71v-3.46c0-.08-.02-.16-.04-.23.92-.38,1.57-1.29,1.57-2.35,0-1.41-1.14-2.55-2.55-2.55Z"/>
</svg>