<?xml version="1.0" encoding="UTF-8"?>
<svg id="Layer_1" data-name="Layer 1" xmlns="http://www.w3.org/2000/svg" viewBox="0 0 51.04 58.91">
  <defs>
    <style>
      .cls-1 {
        fill: #fbcc8f;
      }
    </style>
  </defs>
  <path class="cls-1" d="M41.55,25.12c-.11-.12-.27-.18-.43-.18h-7.01v-.51c0-.33-.27-.6-.6-.6h-6.26l1.61-1.69c.14-.14.13-.37-.01-.5l-1.59-1.51,6.56-6.88c.22-.23.21-.59-.02-.81l-.75-.71c-.23-.22-.59-.21-.81.02l-6.56,6.88-1.59-1.51c-.14-.14-.37-.13-.5.01l-2.08,2.18c-.14.14-.13.37.01.5l4.23,4.03h-14.7c-1.11,0-1.72,1.54-1.72,2.32,0,3.17,2.31,3.75,4.35,4.27,2.65.67,5.38,1.36,5.38,6.94,0,3.42-1.72,4.38-3.39,5.32-1.32.74-2.68,1.5-2.68,3.4,0,.33.27.6.6.6h18.77c.33,0,.6-.27.6-.6,0-1.88-1.34-2.66-2.64-3.42-1.69-.98-3.43-2-3.43-5.54,0-4.81,4.27-5.53,6.81-5.53,1.96,0,3.9-.54,5.34-1.48,1.71-1.12,2.63-2.69,2.67-4.55,0-.16-.06-.32-.17-.43ZM33.71,30.38c-1.38,0-2.59.18-3.63.53-1.23.3-2.5.52-3.78.68.66.08,1.32.14,1.99.18-1.68,1.14-2.59,2.96-2.59,5.34,0,4.24,2.33,5.59,4.03,6.58,1.08.63,1.74,1.05,1.96,1.78H14.27c.22-.73.89-1.14,1.98-1.75,1.69-.95,4.01-2.24,4.01-6.36,0-3.16-.82-5-1.99-6.13,1.05.07,2.1.11,3.15.11-1.84-.39-3.65-.88-5.41-1.48-.68-.26-1.38-.44-2.04-.6-2.26-.57-3.44-.97-3.44-3.1,0-.43.35-1.06.53-1.12h21.85v.66h0,0v4.04l.95-3.6h6.6c-.47,2.76-3.72,4.24-6.75,4.24Z"/>
  <path class="cls-1" d="M26.3,31.59s0,0,0,0c0,0,0,0,0,0Z"/>
  <path class="cls-1" d="M26.37,31.6s.03,0,.04,0c-.01,0-.03,0-.04,0Z"/>
  <path class="cls-1" d="M26.5,31.62s.03,0,.05,0c-.02,0-.03,0-.05,0Z"/>
  <path class="cls-1" d="M26.41,31.6s.06,0,.09.01c-.03,0-.06,0-.09-.01Z"/>
  <path class="cls-1" d="M26.56,31.62s.04,0,.06,0c-.02,0-.04,0-.06,0Z"/>
  <path class="cls-1" d="M26.31,31.59s.03,0,.05,0c-.02,0-.03,0-.05,0Z"/>
  <path class="cls-1" d="M26.36,31.6s0,0,.01,0c0,0,0,0-.01,0Z"/>
  <path class="cls-1" d="M26.93,31.66s.05,0,.06,0c-.02,0-.04,0-.06,0Z"/>
  <path class="cls-1" d="M26.87,31.66s.01,0,.02,0c0,0-.01,0-.02,0Z"/>
  <path class="cls-1" d="M26.62,31.63s.01,0,.02,0c0,0-.01,0-.02,0Z"/>
  <path class="cls-1" d="M27,31.67s.04,0,0,0h0Z"/>
  <path class="cls-1" d="M26.89,31.66s.03,0,.04,0c-.01,0-.03,0-.04,0Z"/>
  <path class="cls-1" d="M26.63,31.63s.09,0,.12.01c-.04,0-.08,0-.12-.01Z"/>
  <path class="cls-1" d="M26.76,31.64s.02,0,.02,0c0,0-.02,0-.02,0Z"/>
  <path class="cls-1" d="M26.78,31.65s.06,0,.09.01c-.03,0-.06,0-.09-.01Z"/>
  <path class="cls-1" d="M17.72,17.03c1.23,1.63,2.49,3.24,3.95,4.68l.09-.07c-.41-.71-.88-1.39-1.35-2.05-1.45-1.98-2.99-3.88-4.69-5.65l-.09.07c.65,1.04,1.36,2.04,2.09,3.02Z"/>
  <path class="cls-1" d="M14.21,20.28c1.84.63,3.73,1.15,5.66,1.45l.03-.11c-.6-.27-1.2-.51-1.82-.72-1.84-.64-3.72-1.2-5.66-1.46l-.03.11c.59.29,1.2.52,1.81.74Z"/>
  <path class="cls-1" d="M14.58,15.2c0-1.37.19-2.06,1.09-2.06-.9,0-1.09-.7-1.09-2.06,0,1.37-.19,2.06-1.09,2.06.9,0,1.09.7,1.09,2.06Z"/>
  <path class="cls-1" d="M11.33,20.72c0-1.37.19-2.06,1.09-2.06-.9,0-1.09-.7-1.09-2.06,0,1.37-.19,2.06-1.09,2.06.9,0,1.09.7,1.09,2.06Z"/>
  <path class="cls-1" d="M14.61,16.24c0,.8-.11,1.21-.64,1.21.53,0,.64.41.64,1.21,0-.8.11-1.21.64-1.21-.53,0-.64-.41-.64-1.21Z"/>
</svg>