<?xml version="1.0" encoding="UTF-8"?>
<svg id="Layer_1" data-name="Layer 1" xmlns="http://www.w3.org/2000/svg" viewBox="0 0 48.68 59.53">
  <defs>
    <style>
      .cls-1 {
        fill: #fbcc8f;
      }
    </style>
  </defs>
  <g>
    <path class="cls-1" d="M35.28,15.38c-.4-.39-.85-.68-1.34-.87v-.21c0-3.23-1.05-5.96-3.05-7.9-1.78-1.73-4.18-2.69-6.74-2.69s-4.96.95-6.74,2.69c-1.99,1.94-3.05,4.67-3.05,7.9v.21c-.48.19-.93.48-1.34.87-2.23,2.15-2.61,6.51-2.25,9.59.43,3.75,1.83,6.69,4.14,8.73,2.31,2.04,5.42,3.07,9.23,3.07s6.92-1.03,9.23-3.07c2.32-2.04,3.71-4.98,4.14-8.73.36-3.08-.02-7.45-2.25-9.59ZM24.16,6.11c3.56,0,7.38,2.56,7.38,8.19v.05c-1.59.32-2.43,1.13-3.19,1.84-.97.92-1.81,1.71-4.2,1.71s-3.23-.79-4.2-1.71c-.75-.71-1.6-1.52-3.19-1.84v-.05c0-5.63,3.83-8.19,7.38-8.19ZM36.34,24.83c-.8,6.92-5.12,10.73-12.18,10.73s-11.38-3.81-12.18-10.73c-.42-3.64.34-7.1,1.89-8.59.56-.54,1.18-.8,1.91-.8.16,0,.33.01.5.04,1.42.22,2.09.85,2.86,1.58,1.01.96,2.16,2.04,5.02,2.04s4.01-1.09,5.02-2.04c.77-.73,1.44-1.36,2.86-1.58.94-.14,1.73.1,2.41.76,1.55,1.49,2.31,4.95,1.89,8.59Z"/>
    <path class="cls-1" d="M24.16,22.5c-1.41,0-2.55,1.14-2.55,2.55,0,1.06.65,1.97,1.57,2.35-.03.07-.04.15-.04.23v3.46c0,.39.32.71.71.71h.63c.39,0,.71-.32.71-.71v-3.46c0-.08-.02-.16-.04-.23.92-.38,1.57-1.29,1.57-2.35,0-1.41-1.14-2.55-2.55-2.55Z"/>
  </g>
  <g>
    <path class="cls-1" d="M2.92,49.63c-.22-.57-.37-.95-.4-.95,0,0-.01-.03-.01-.07v-.07h2.05v.15s.06.16.15.44l2.77,7.8,2.33-8.01c.04-.15.06-.23.06-.23v-.15h.62v.15s-.09.19-.19.5l-3.15,10.5h-.47l-3.78-10.04h.03Z"/>
    <path class="cls-1" d="M12.77,58.13c-.22.7-.34,1.17-.32,1.17v.15h-.67v-.15h.01s.12-.29.26-.75l3.14-10.26h.45l3.81,10.37c.16.41.28.66.31.66h.01v.15h-2.04v-.04l-.03-.1h-.03s-.03-.18-.12-.47l-1.89-5.6h-1.47l-1.42,4.88h.01-.03ZM14.87,50.92l-.54,1.85h1.17l-.63-1.85Z"/>
    <path class="cls-1" d="M21.45,48.53h1.86v.15h-.01s-.03.35-.04.88v6.67c.01,1.6.56,2.65,1.94,2.65,1.82,0,2.52-1.08,2.52-2.7v-6.41c0-.66-.01-1.1-.04-1.1h-.01v-.15h.66v.15h-.01s-.03.09-.03.25v7.45c0,1.89-.94,3.15-3.36,3.15s-3.49-1.47-3.49-3.65v-6.25c0-.57-.01-.95-.04-.95v-.15h.07Z"/>
    <path class="cls-1" d="M36.3,59.45h-5.94v-.15s.04-.38.04-.95v-8.72c0-.57-.01-.95-.04-.95v-.15h1.91v.15h-.01s-.03.38-.04.95v9.37h2.32c.79,0,1.44-.03,1.63-.07h.04s.15-.01.15-.01h.03c-.01.09-.03.22-.04.31l-.03.23Z"/>
    <path class="cls-1" d="M46.17,49.08h-.19c-.23-.06-.85-.09-1.55-.09h-1.6v9.36c.01.57.03.95.04.95h.01v.15h-1.92v-.15s.04-.38.04-.95v-9.36h-1.58c-.7,0-1.33.03-1.57.07h-.06s-.1.01-.1.01h-.01c0-.1.01-.22.03-.32l.02-.24h8.39l.03.24c0,.1.01.22.03.32Z"/>
  </g>
</svg>