<?xml version="1.0" encoding="UTF-8"?>
<svg id="Layer_1" data-name="Layer 1" xmlns="http://www.w3.org/2000/svg" viewBox="0 0 48.68 59.53">
  <defs>
    <style>
      .cls-1 {
        fill: #fbcc8f;
      }
    </style>
  </defs>
  <g>
    <path class="cls-1" d="M40.29,14.05c-.11-.12-.27-.18-.43-.18h-7.01v-.51c0-.33-.27-.6-.6-.6h-6.26l1.61-1.69c.14-.14.13-.37-.01-.5l-1.59-1.51,6.56-6.88c.22-.23.21-.59-.02-.81l-.75-.71c-.23-.22-.59-.21-.81.02l-6.56,6.88-1.59-1.51c-.14-.14-.37-.13-.5.01l-2.08,2.18c-.14.14-.13.37.01.5l4.23,4.03h-14.7c-1.11,0-1.72,1.54-1.72,2.32,0,3.17,2.31,3.75,4.35,4.27,2.65.67,5.38,1.36,5.38,6.94,0,3.42-1.72,4.38-3.39,5.32-1.32.74-2.68,1.5-2.68,3.4,0,.33.27.6.6.6h18.77c.33,0,.6-.27.6-.6,0-1.88-1.34-2.66-2.64-3.42-1.69-.98-3.43-2-3.43-5.54,0-4.81,4.27-5.53,6.81-5.53,1.96,0,3.9-.54,5.34-1.48,1.71-1.12,2.63-2.69,2.67-4.55,0-.16-.06-.32-.17-.43ZM32.46,19.31c-1.38,0-2.59.18-3.63.53-1.23.3-2.5.52-3.78.68.66.08,1.32.14,1.99.18-1.68,1.14-2.59,2.96-2.59,5.34,0,4.24,2.33,5.59,4.03,6.58,1.08.63,1.74,1.05,1.96,1.78H13.02c.22-.73.89-1.14,1.98-1.75,1.69-.95,4.01-2.24,4.01-6.36,0-3.16-.82-5-1.99-6.13,1.05.07,2.1.11,3.15.11-1.84-.39-3.65-.88-5.41-1.48-.68-.26-1.38-.44-2.04-.6-2.26-.57-3.44-.97-3.44-3.1,0-.43.35-1.06.53-1.12h21.85v.66h0,0v4.04l.95-3.6h6.6c-.47,2.76-3.72,4.24-6.75,4.24Z"/>
    <path class="cls-1" d="M25.04,20.52s0,0,0,0c0,0,0,0,0,0Z"/>
    <path class="cls-1" d="M25.12,20.53s.03,0,.04,0c-.01,0-.03,0-.04,0Z"/>
    <path class="cls-1" d="M25.25,20.54s.03,0,.05,0c-.02,0-.03,0-.05,0Z"/>
    <path class="cls-1" d="M25.16,20.53s.06,0,.09.01c-.03,0-.06,0-.09-.01Z"/>
    <path class="cls-1" d="M25.3,20.55s.04,0,.06,0c-.02,0-.04,0-.06,0Z"/>
    <path class="cls-1" d="M25.05,20.52s.03,0,.05,0c-.02,0-.03,0-.05,0Z"/>
    <path class="cls-1" d="M25.11,20.53s0,0,.01,0c0,0,0,0-.01,0Z"/>
    <path class="cls-1" d="M25.68,20.59s.05,0,.06,0c-.02,0-.04,0-.06,0Z"/>
    <path class="cls-1" d="M25.62,20.59s.01,0,.02,0c0,0-.01,0-.02,0Z"/>
    <path class="cls-1" d="M25.37,20.56s.01,0,.02,0c0,0-.01,0-.02,0Z"/>
    <path class="cls-1" d="M25.74,20.6s.04,0,0,0h0Z"/>
    <path class="cls-1" d="M25.64,20.59s.03,0,.04,0c-.01,0-.03,0-.04,0Z"/>
    <path class="cls-1" d="M25.38,20.56s.09,0,.12.01c-.04,0-.08,0-.12-.01Z"/>
    <path class="cls-1" d="M25.5,20.57s.02,0,.02,0c0,0-.02,0-.02,0Z"/>
    <path class="cls-1" d="M25.53,20.58s.06,0,.09.01c-.03,0-.06,0-.09-.01Z"/>
    <path class="cls-1" d="M16.47,5.96c1.23,1.63,2.49,3.24,3.95,4.68l.09-.07c-.41-.71-.88-1.39-1.35-2.05-1.45-1.98-2.99-3.88-4.69-5.65l-.09.07c.65,1.04,1.36,2.04,2.09,3.02Z"/>
    <path class="cls-1" d="M12.96,9.2c1.84.63,3.73,1.15,5.66,1.45l.03-.11c-.6-.27-1.2-.51-1.82-.72-1.84-.64-3.72-1.2-5.66-1.46l-.03.11c.59.29,1.2.52,1.81.74Z"/>
    <path class="cls-1" d="M13.33,4.13c0-1.37.19-2.06,1.09-2.06C13.52,2.06,13.33,1.37,13.33,0c0,1.37-.19,2.06-1.09,2.06.9,0,1.09.7,1.09,2.06Z"/>
    <path class="cls-1" d="M10.08,9.65c0-1.37.19-2.06,1.09-2.06-.9,0-1.09-.7-1.09-2.06,0,1.37-.19,2.06-1.09,2.06.9,0,1.09.7,1.09,2.06Z"/>
    <path class="cls-1" d="M13.36,5.17c0,.8-.11,1.21-.64,1.21.53,0,.64.41.64,1.21,0-.8.11-1.21.64-1.21-.53,0-.64-.41-.64-1.21Z"/>
  </g>
  <g>
    <path class="cls-1" d="M7.67,49.07h-.18c-.21-.04-.94-.07-1.82-.07h-2.54v4.09h1.33c.75,0,1.32-.01,1.42-.04h.15v.56h-.15c-.1-.04-.67-.06-1.42-.06h-1.33v4.81c.02.57.03.95.07.95h.01v.15h-1.95v-.15s.04-.38.04-.95v-8.72c0-.57-.01-.95-.04-.95v-.15h6.39v.54Z"/>
    <path class="cls-1" d="M13.62,48.45c3.08,0,4.66,2.55,4.66,5.54s-1.58,5.53-4.66,5.53-4.66-2.55-4.66-5.53,1.58-5.54,4.66-5.54ZM16.28,54c0-2.74-.91-5.07-2.65-5.07s-2.65,2.33-2.65,5.07.91,5.07,2.65,5.07,2.65-2.33,2.65-5.07Z"/>
    <path class="cls-1" d="M28.14,59.47c-2.02,0-2.16-.06-3.29-1.55l-2.71-3.62v4.08c.01.57.03.95.04.95h.01v.15h-1.92v-.15s.04-.38.04-.95v-8.72c0-.57-.01-.95-.04-.95v-.15h3.26c2.11,0,3.52,1.07,3.52,2.68,0,1.31-1.14,2.27-2.99,2.64l3.34,4.4c.6.79.66.82,1.28.82h.07v.37h-.62ZM25.13,51.23c0-1.33-.65-2.21-1.6-2.21h-1.39v4.56h.16c1.7,0,2.83-.94,2.83-2.35Z"/>
    <path class="cls-1" d="M37.01,55.41c0-.57-.01-.95-.04-.95v-.15h1.73v.15h-.01s-.03.38-.03.95v3.25c-.89.51-2.29.85-3.5.85-3.02,0-5.03-2.21-5.03-5.53s2.01-5.54,5.03-5.54c1.66,0,3.04.62,3.48,1.53v.28h-.13s-.09-.06-.12-.09l-.04-.04-.13.06c-.04-.1-.1-.19-.18-.28-.51-.35-.97-.62-1.23-.73-.47-.15-1.03-.23-1.63-.23-1.8,0-3.02,2.02-3.02,5.07s1.22,5.07,3.02,5.07c.6,0,1.26-.09,1.86-.25v-3.4h-.01Z"/>
    <path class="cls-1" d="M47.31,59.45h-5.94v-.15s.04-.38.04-.95v-8.72c0-.57-.01-.95-.04-.95v-.15h5.95v.54h-.18c-.21-.04-.94-.07-1.82-.07h-2.1v4h1.48c.75,0,1.32-.01,1.42-.04h.15v.56h-.15c-.1-.04-.67-.06-1.42-.06h-1.48v5.54h2.17c.88,0,1.61-.03,1.83-.07h.06s.04,0,.1-.01c-.01.1-.03.22-.04.31l-.04.23Z"/>
  </g>
</svg>