<?xml version="1.0" encoding="UTF-8"?>
<svg id="Layer_1" data-name="Layer 1" xmlns="http://www.w3.org/2000/svg" viewBox="0 0 32.39 36.77">
  <defs>
    <style>
      .cls-1 {
        fill: #fbcc8f;
      }
    </style>
  </defs>
  <path class="cls-1" d="M30.72,7.03c0-1.13,0-1.82,0-1.82,0-.27-.2-.5-.47-.53-4.57-.61-9.66-.39-13.54,2.33h-1.04c-2.83-1.98-6.4-2.67-9.81-2.61-1.25.02-2.5.12-3.73.28-.26.03-.47.26-.47.53,0,.57,0,1.18,0,1.82-.52.11-.91.57-.91,1.13v21.73c0,.64.52,1.16,1.16,1.16h10.89c.41,0,.78.23.99.59.77,1.26,4.02,1.26,4.79,0,.21-.35.58-.59.99-.59h.24v4.49c0,.2.11.39.3.48.18.09.4.07.56-.05l1.8-1.33,1.8,1.33c.09.07.21.11.32.11.08,0,.17-.02.24-.06.18-.09.3-.28.3-.48v-4.49h5.33c.64,0,1.16-.52,1.16-1.16V8.16c0-.55-.39-1.01-.91-1.13ZM24.07,34.47l-1.26-.93c-.1-.07-.21-.11-.32-.11s-.23.04-.32.11l-1.26.93v-3.42h3.16v3.42ZM2.75,24.49c-.02-4.47.02-12.23,0-17.48,0-.46,0-.9,0-1.32,3.39-.39,6.93-.34,10.11.99.24.1.48.21.71.33.75.37,1.45.82,2.1,1.35l.52,10.08.52-10.08c.65-.52,1.36-.97,2.1-1.35.23-.12.47-.23.71-.33,3.17-1.33,6.72-1.38,10.11-.99v20.8c-.21-.06-.41-.12-.62-.17-1.49-.37-3.06-.47-4.59-.29-2.64.31-5.2,1.43-7.18,3.22-.26.26-.57.52-.79.82v-.16s-.07-1.03-.07-1.03c-.04-.9-.09-1.85-.13-2.8-.04-1.15-.08-2.3-.09-3.38-.01,1.86-.1,3.89-.19,5.78,0,.13-.01.27-.02.4l-.06,1.03s0,.11-.01.21c-.04-.05-.08-.09-.12-.13-.67-.74-1.44-1.37-2.27-1.92-2.49-1.63-5.56-2.34-8.52-2.03-.77.08-1.52.23-2.26.44,0-.64,0-1.5,0-2.01ZM3.5,29.16c0-.72,0-1.31,0-1.73,3.23-.76,6.71-.31,9.6,1.36.53.3,1.03.64,1.51,1.02-.49-.19-.99-.37-1.49-.53-3.05-1.06-6.63-1.57-9.61-.11ZM19.32,28.83c1.07-.61,2.23-1.07,3.42-1.36,1.19-.29,2.42-.41,3.65-.36.84.03,1.68.15,2.5.34v1.71c-3.68-1.81-7.78-.61-10.86.52.41-.31.84-.59,1.29-.85Z"/>
</svg>